<?xml version="1.0" encoding="UTF-8"?><svg id="Ebene_2" xmlns="http://www.w3.org/2000/svg" xmlns:xlink="http://www.w3.org/1999/xlink" viewBox="0 0 165.76 90.05"><defs><clipPath id="clippath"><rect x="15.45" y="20.01" width="49.81" height="35.63" style="fill:none;"/></clipPath><clipPath id="clippath-1"><rect x="15.45" y="20.01" width="49.81" height="35.63" style="fill:none;"/></clipPath><clipPath id="clippath-2"><rect x="15.45" y="20.01" width="49.81" height="35.63" style="fill:none;"/></clipPath><clipPath id="clippath-3"><rect x="15.45" y="20.01" width="49.81" height="35.63" style="fill:none;"/></clipPath><clipPath id="clippath-4"><rect x="15.45" y="20.01" width="49.81" height="35.63" style="fill:none;"/></clipPath><clipPath id="clippath-5"><rect x="15.45" y="20.01" width="49.81" height="35.63" style="fill:none;"/></clipPath><clipPath id="clippath-6"><rect x="15.45" y="20.01" width="49.81" height="35.63" style="fill:none;"/></clipPath><clipPath id="clippath-7"><rect x="15.45" y="20.01" width="49.81" height="35.63" style="fill:none;"/></clipPath></defs><g id="Ebene_2-2"><ellipse cx="82.88" cy="45.02" rx="82.88" ry="45.02" style="fill:#b1b3d3;"/><g id="Ebene_1-2"><g><path d="M137.77,60.05c-.89,.73-1.64,1.33-2.59,1.33-.74,0-1.66-.4-1.66-1.62,0-.36,.09-.71,.17-1.08l.5-.07c2.88-.4,4.54-1.85,4.54-3.24,0-.78-.55-1.2-1.45-1.2-2.5,0-5.3,2.98-5.3,5.51,0,1.12,.57,2.5,2.43,2.5s3.39-1.64,3.58-1.91l-.21-.21h0Zm-3.66-2.55c.65-1.58,1.87-2.94,2.82-2.94,.44,0,.63,.34,.63,.71,0,.14-.09,2.27-3.74,3.01l.3-.78Zm-10.02-2.67c1.31-.13,1.35,.15,1.64,1.75,.17,1.03,.4,3.91,.4,5.18,0,.3,0,.53,.16,.53,.27,0,.59-.36,1.75-1.62,.59-.63,3.23-3.78,3.23-5.41,0-.65-.42-1.12-1.01-1.12-.36,0-.63,.25-.63,.51,0,.95,.74,.76,.74,1.45,0,.89-1.41,3-2.43,4.04l-.55,.57c-.13-2.43-.23-3.89-.76-6.22-.09-.38-.11-.36-.28-.36-.09,0-.96,.25-2.25,.44v.25Zm-.45-3.47c0-.39-.3-.97-.89-.97-.42,0-.84,.34-.84,.95s.4,.92,.85,.92c.59,0,.87-.55,.87-.9m-.74,8.6c-.73,1.03-1.24,1.39-1.45,1.39-.16,0-.29-.14-.29-.27,0-.21,.21-.92,.29-1.17l1.56-5.71-.05-.04c-.69,.13-2.16,.4-2.84,.44v.29c.97,0,1.12,.09,1.12,.46,0,.5-1.4,4.9-1.4,5.72,0,.32,0,1.1,.84,1.1,.99,0,1.77-.97,2.46-2.02l-.23-.19h0Zm-4.65-.15c-.87,1.12-1.24,1.62-1.68,1.62-.27,0-.27-.25-.27-.36,0-.19,.14-.67,.17-.84l2.69-10.26-.09-.09c-.92,.21-1.85,.38-2.77,.48v.28c.46-.02,1.2-.02,1.2,.44,0,.38-2.57,9.63-2.57,10,0,.5,.07,1.1,.86,1.1,1.1,0,1.79-.86,2.69-2.22l-.23-.16h0Z" style="fill:#878787;"/><path d="M90.79,58.96c.68,.25,1.83,.5,2.67,.5s1.41-.16,1.41-.66c0-.66-.71-.84-1.6-1.07-1.39-.34-2.65-1.1-2.65-2.66,0-1.8,1.24-2.42,3.33-2.42,.83,0,2.08,.25,2.83,.5l-.35,1.83c-.93-.34-1.81-.5-2.33-.5-.82,0-1.14,.25-1.14,.58,0,.5,.53,.64,1.5,.89,1.39,.37,2.74,.91,2.74,2.67,0,1.87-1.58,2.66-3.74,2.66-.75,0-2.24-.16-2.99-.5l.32-1.83h0Zm-4.47-8.31c0,.73,.6,1.33,1.33,1.33s1.33-.6,1.33-1.33-.6-1.33-1.33-1.33-1.33,.6-1.33,1.33m2.49,2.16h-2.33v8.32h2.33v-8.32Zm-8.65,6.66c.75,0,1.16-.16,1.66-.34v-4.41c-.41-.16-.83-.25-1.5-.25-1.25,0-1.66,.75-1.66,2.58,0,1.5,.34,2.41,1.5,2.41m1.66-6.36v-3.63l2.33-.16v11.81h-2.33v-.58h-.09c-.59,.58-1.26,.75-2.16,.75-2.41,0-3.24-1.99-3.24-4.16,0-2.51,1.01-4.5,3.66-4.5,.68,0,1.25,.16,1.78,.5l.05-.03h0Z" style="fill:#123274;"/><path d="M113.66,56.95c0-3.12-1.69-4.46-4.19-4.46-2.84,0-4.35,1.48-4.53,4.23h2.5c.13-1.69,.81-2.36,1.93-2.36,1.25,0,1.78,.71,1.78,2.59,0,2.14-.71,2.94-1.96,2.94-.84,0-1.35-.33-1.6-1.1-.21,.89-.62,1.64-1.23,2.17,.71,.55,1.64,.81,2.74,.81,3.03,0,4.55-1.69,4.55-4.82" style="fill:#3aaa35;"/><path d="M98.55,57.3c0,3.12,1.69,4.45,4.19,4.45,2.84,0,4.35-1.48,4.53-4.22h-2.5c-.13,1.69-.81,2.36-1.93,2.36-1.25,0-1.78-.71-1.78-2.59,0-2.14,.71-2.94,1.96-2.94,.84,0,1.35,.33,1.6,1.11,.21-.89,.62-1.64,1.23-2.17-.71-.55-1.64-.81-2.74-.81-3.03,0-4.55,1.69-4.55,4.82" style="fill:#123274;"/></g><rect x="98.55" y="52.36" width="2.32" height="12.52" style="fill:#123274;"/><g><path d="M77.64,68.19c.14,.09,.36,.16,.58,.16,.33,0,.52-.17,.52-.42,0-.23-.13-.37-.47-.5-.4-.14-.65-.36-.65-.7,0-.38,.32-.67,.81-.67,.26,0,.44,.06,.55,.13l-.09,.26c-.08-.05-.25-.12-.47-.12-.34,0-.47,.2-.47,.38,0,.23,.15,.35,.5,.48,.42,.16,.63,.37,.63,.73s-.29,.72-.88,.72c-.24,0-.5-.07-.63-.16l.08-.27h0Z" style="fill:#123274;"/><path d="M81.14,67.67c0,.66-.46,.95-.89,.95-.48,0-.86-.36-.86-.92,0-.6,.39-.95,.89-.95s.87,.38,.87,.92Zm-1.42,.02c0,.39,.22,.68,.55,.68s.54-.29,.54-.69c0-.31-.15-.68-.54-.68s-.55,.36-.55,.69Z" style="fill:#123274;"/><path d="M81.59,68.59v-1.54h-.25v-.25h.25v-.09c0-.25,.06-.48,.21-.63,.13-.12,.29-.16,.43-.16,.12,0,.21,.03,.28,.05l-.05,.25s-.12-.04-.21-.04c-.28,0-.35,.24-.35,.52v.1h.43v.25h-.43v1.54h-.32Z" style="fill:#123274;"/><path d="M83.08,66.28v.51h.46v.25h-.46v.96c0,.22,.07,.35,.24,.35,.09,0,.14,0,.19-.02l.02,.24c-.06,.03-.16,.05-.29,.05-.15,0-.27-.05-.36-.13-.1-.1-.13-.26-.13-.46v-.98h-.28v-.25h.28v-.43l.32-.09h0Z" style="fill:#123274;"/><path d="M84.07,66.8l.24,.91c.05,.2,.1,.38,.13,.57h0c.04-.18,.1-.38,.16-.57l.29-.91h.27l.28,.89c.07,.21,.12,.4,.16,.59h0c.03-.18,.08-.37,.13-.58l.26-.89h.32l-.58,1.79h-.3l-.27-.86c-.07-.2-.12-.38-.16-.59h0c-.05,.21-.1,.4-.16,.6l-.29,.85h-.3l-.54-1.79h.33Z" style="fill:#123274;"/><path d="M87.64,68.59l-.03-.22h0c-.1,.14-.29,.27-.55,.27-.37,0-.55-.25-.55-.51,0-.43,.38-.67,1.08-.66v-.04c0-.14-.04-.41-.4-.41-.16,0-.34,.05-.46,.13l-.08-.21c.14-.1,.37-.16,.59-.16,.55,0,.68,.38,.68,.73v.67c0,.15,0,.31,.03,.43h-.3v-.02Zm-.05-.91c-.36,0-.76,.06-.76,.4,0,.21,.14,.31,.31,.31,.23,0,.38-.14,.43-.3,0-.03,.02-.07,.02-.11v-.31Z" style="fill:#123274;"/><path d="M88.43,67.36c0-.21,0-.39-.02-.56h.29v.36h.03c.08-.24,.28-.39,.5-.39,.04,0,.07,0,.1,0v.31s-.07,0-.12,0c-.23,0-.39,.17-.43,.41,0,.05-.02,.1-.02,.15v.95h-.32v-1.23h0Z" style="fill:#123274;"/><path d="M89.79,67.75c0,.44,.29,.63,.62,.63,.23,0,.38-.04,.5-.1l.06,.23c-.12,.05-.31,.12-.6,.12-.55,0-.89-.37-.89-.9s.32-.96,.84-.96c.59,0,.74,.51,.74,.85,0,.07,0,.12,0,.15h-1.26Zm.95-.24c0-.2-.09-.53-.45-.53-.33,0-.47,.31-.5,.53h.95Z" style="fill:#123274;"/></g><g><path d="M92.53,68.59v-1.63h-.34v-.22h.34v-.36c0-.34,.19-.46,.46-.46,.13,0,.24,.02,.37,.06l-.04,.2c-.14-.04-.24-.04-.3-.04-.1,0-.24,.05-.24,.24v.36h.52l-.04,.22h-.48v1.63h-.25Z" style="fill:#123274;"/><path d="M94.97,68.27v-1.54h.26v1.85h-.26v-.14h-.02c-.2,.13-.38,.18-.6,.18-.4,0-.61-.22-.61-.63v-1.25h.26v1.14c0,.3,.1,.53,.4,.53,.26,0,.43-.08,.56-.13Zm-.83-2.21c.11,0,.19,.08,.19,.19s-.08,.19-.19,.19-.19-.08-.19-.19,.08-.19,.19-.19Zm.7,0c.11,0,.19,.08,.19,.19s-.08,.19-.19,.19-.19-.08-.19-.19,.08-.19,.19-.19Z" style="fill:#123274;"/><path d="M96.84,66.95c-.26,0-.49,.04-.61,.1v1.54h-.26v-1.85h.26v.14h.02c.2-.13,.38-.18,.6-.18v.26h0Z" style="fill:#123274;"/><path d="M99.42,66.8v-.81l.26-.04v2.63h-.26v-.13h-.02c-.2,.13-.36,.16-.56,.16-.54,0-.72-.44-.72-.92,0-.56,.22-1,.81-1,.15,0,.34,.04,.47,.12h.02Zm-.48,1.58c.24,0,.34-.04,.48-.08v-1.35c-.16-.04-.3-.06-.44-.06-.46,0-.58,.36-.58,.76,0,.34,.06,.72,.54,.72Z" style="fill:#123274;"/><path d="M101.69,68.51c-.16,.08-.36,.12-.6,.12-.56,0-.85-.22-.85-.96,0-.63,.28-.96,.8-.96s.74,.3,.74,.8c0,.04,0,.12-.02,.18h-1.26c0,.58,.22,.72,.6,.72,.18,0,.38-.04,.54-.1l.06,.2h0Zm-1.17-1.06h1.01c-.02-.35-.16-.54-.48-.54-.28,0-.48,.14-.53,.54Z" style="fill:#123274;"/><path d="M102.64,67.05v1.54h-.26v-1.85h.26v.14h.02c.2-.13,.39-.18,.6-.18,.4,0,.61,.22,.61,.63v1.25h-.26v-1.14c0-.3-.09-.53-.4-.53-.26,0-.44,.08-.56,.13Z" style="fill:#123274;"/><path d="M105.71,67.37l1.14-1.27h.34l-1,1.11,1.07,1.37h-.36l-.89-1.17-.29,.33v.85h-.27v-2.48h.27v1.27h0Z" style="fill:#123274;"/><path d="M108.62,66.95c-.26,0-.49,.04-.61,.1v1.54h-.26v-1.85h.26v.14h.02c.2-.13,.38-.18,.6-.18v.26h0Z" style="fill:#123274;"/><path d="M109.6,67.61c.14,0,.37,.02,.55,.06h0v-.34c0-.26-.14-.4-.44-.4-.22,0-.36,.04-.54,.1l-.06-.2c.18-.08,.39-.12,.64-.12,.44,0,.64,.2,.64,.6v1.09h.24v.16c-.13,.06-.24,.08-.32,.08-.12,0-.17-.07-.18-.16h-.02c-.16,.12-.38,.16-.6,.16-.32,0-.57-.13-.57-.51s.22-.51,.63-.51h0Zm.56,.22h-.6c-.3,0-.34,.15-.34,.28,0,.22,.1,.3,.3,.3,.24,0,.47-.04,.63-.08v-.5h0Z" style="fill:#123274;"/><path d="M111.41,67.05v1.54h-.26v-1.85h.26v.14h.02c.2-.13,.39-.18,.6-.18,.4,0,.61,.22,.61,.63v1.25h-.26v-1.14c0-.3-.09-.53-.4-.53-.26,0-.44,.08-.56,.13Z" style="fill:#123274;"/><path d="M113.58,67.49h.39l.61-.76h.32l-.68,.85,.8,1h-.34l-.68-.85h-.4v.85h-.26v-2.59l.26-.04v1.54h0Z" style="fill:#123274;"/><path d="M116.71,68.51c-.16,.08-.36,.12-.6,.12-.56,0-.85-.22-.85-.96,0-.63,.28-.96,.8-.96s.74,.3,.74,.8c0,.04,0,.12-.02,.18h-1.26c0,.58,.22,.72,.6,.72,.18,0,.38-.04,.54-.1l.06,.2h0Zm-1.17-1.06h1.01c-.02-.35-.16-.54-.48-.54-.28,0-.48,.14-.53,.54Z" style="fill:#123274;"/><path d="M117.66,67.05v1.54h-.26v-1.85h.26v.14h.02c.2-.13,.39-.18,.6-.18,.4,0,.61,.22,.61,.63v1.25h-.26v-1.14c0-.3-.09-.53-.4-.53-.26,0-.44,.08-.56,.13Z" style="fill:#123274;"/><path d="M119.92,66.14v.6h.52l-.04,.22h-.48v1.2c0,.19,.14,.24,.24,.24,.06,0,.12,0,.26-.03l.04,.21c-.1,.02-.2,.04-.34,.04-.27,0-.46-.13-.46-.46v-1.2h-.34v-.22h.34v-.56l.26-.04Z" style="fill:#123274;"/><path d="M121.88,66.95c-.26,0-.49,.04-.61,.1v1.54h-.26v-1.85h.26v.14h.02c.2-.13,.38-.18,.6-.18v.26h0Z" style="fill:#123274;"/><path d="M122.86,67.61c.14,0,.37,.02,.55,.06h0v-.34c0-.26-.14-.4-.44-.4-.22,0-.36,.04-.54,.1l-.06-.2c.18-.08,.39-.12,.64-.12,.44,0,.64,.2,.64,.6v1.09h.24v.16c-.13,.06-.24,.08-.32,.08-.12,0-.17-.07-.18-.16h-.02c-.16,.12-.38,.16-.6,.16-.32,0-.57-.13-.57-.51s.22-.51,.63-.51h0Zm.56,.22h-.6c-.3,0-.34,.15-.34,.28,0,.22,.1,.3,.3,.3,.24,0,.47-.04,.63-.08v-.5h0Z" style="fill:#123274;"/><path d="M124.67,67.05v1.54h-.26v-1.85h.26v.14h.02c.2-.13,.39-.18,.6-.18,.4,0,.61,.22,.61,.63v1.25h-.26v-1.14c0-.3-.09-.53-.4-.53-.26,0-.44,.08-.56,.13Z" style="fill:#123274;"/><path d="M126.53,68.31c.12,.05,.36,.1,.5,.1,.26,0,.46-.1,.46-.32s-.22-.29-.48-.36c-.29-.07-.54-.18-.54-.52,0-.37,.28-.52,.7-.52,.16,0,.36,.05,.48,.1l-.06,.22c-.14-.06-.32-.1-.46-.1-.26,0-.4,.1-.4,.28,0,.22,.16,.25,.46,.34,.29,.08,.56,.16,.56,.54s-.33,.56-.74,.56c-.16,0-.38-.05-.54-.1l.06-.22Z" style="fill:#123274;"/><path d="M128.6,68.52v.81h-.26v-2.59h.26v.13h.02c.2-.13,.36-.16,.56-.16,.54,0,.72,.44,.72,.92,0,.56-.22,1-.81,1-.15,0-.34-.04-.47-.12h-.02Zm.48-1.58c-.24,0-.34,.04-.48,.08v1.37c.16,.04,.3,.06,.44,.06,.46,0,.58-.37,.58-.78,0-.34-.06-.72-.54-.72Z" style="fill:#123274;"/><path d="M131.19,66.7c.52,0,.78,.28,.78,.92s-.22,1-.85,1c-.52,0-.78-.28-.78-.92s.22-1,.85-1Zm-.06,1.72c.44,0,.58-.32,.58-.8,0-.42-.1-.72-.54-.72s-.58,.32-.58,.8c0,.42,.1,.72,.54,.72Z" style="fill:#123274;"/><path d="M133.45,66.95c-.26,0-.49,.04-.61,.1v1.54h-.26v-1.85h.26v.14h.02c.2-.13,.38-.18,.6-.18v.26h0Z" style="fill:#123274;"/><path d="M134.33,66.14v.6h.52l-.04,.22h-.48v1.2c0,.19,.14,.24,.24,.24,.06,0,.12,0,.26-.03l.04,.21c-.1,.02-.2,.04-.34,.04-.27,0-.46-.13-.46-.46v-1.2h-.34v-.22h.34v-.56l.26-.04Z" style="fill:#123274;"/></g></g><g id="b"><g id="c"><g style="clip-path:url(#clippath);"><g><path d="M48.08,31.3c.05-.18,.1-.36,.15-.55,.24-.82,.58-1.68,1.01-2.54,.4-.79,.79-1.49,1.14-2.09,.11-.19,.22-.36,.32-.53,.13-.22,.26-.42,.39-.61s.24-.36,.36-.53c1.17-1.68,1.86-2.16,1.86-2.16h-.52s-.31,1.03-1.54,1.05c-1.37,.03-1.6-1.01-1.6-1.01h-.71s-.39,.7-.84,1.81c-.07,.18-.14,.36-.21,.56-.09,.23-.17,.48-.25,.73-.06,.19-.12,.38-.17,.57-.18,.65-.34,1.36-.44,2.09-.12,.89-.18,1.75-.19,2.55,0,.19,0,.38,0,.57,0,.24,0,.48,.02,.71,0,.19,.02,.39,.03,.57,.17,2.87,.82,4.76,.82,4.76,0,0-.37-1.98,.1-4.69,.03-.18,.07-.36,.11-.55,.05-.23,.1-.47,.17-.71" style="fill:#d0d0d0;"/><path d="M54.54,29.79c-.73,1.29-3.18,2.23-6.08,2.23-.18,0-.36,0-.54-.01-.04,.19-.07,.37-.11,.55,.21,0,.43,.01,.65,.01,4.12,0,7.46-1.6,7.46-3.58,0-.22-.04-.43-.12-.64-.2,.53-.64,1.01-1.26,1.44" style="fill:#d0d0d0;"/><path d="M43.66,27.03c.96-.54,2.3-.91,3.82-1.03,.05-.19,.11-.38,.17-.57-1.56,.08-2.99,.39-4.11,.87l.12,.73Z" style="fill:#d0d0d0;"/><path d="M42.37,29.79c-.62-.42-1.06-.91-1.26-1.44-.08,.21-.12,.42-.12,.64,0,.97,.8,1.85,2.1,2.49,.26,.13,.54,.25,.84,.36,.86,.31,1.86,.54,2.95,.65-.01-.19-.02-.38-.03-.57-2.18-.27-3.9-1.09-4.48-2.13" style="fill:#d0d0d0;"/><path d="M53.37,26.31c-.76-.32-1.67-.57-2.66-.72-.1,.17-.21,.35-.32,.53,1.13,.17,2.11,.5,2.86,.92l.12-.73h0Z" style="fill:#d0d0d0;"/><path d="M51.22,23.03c.83,0,1.51-.67,1.51-1.51s-.67-1.51-1.51-1.51-1.51,.67-1.51,1.51,.67,1.51,1.51,1.51" style="fill:#d0d0d0;"/><path d="M51.46,24.43c-.12,.17-.23,.34-.36,.53,.93,.21,1.73,.51,2.35,.9,.82,.51,1.31,1.15,1.31,1.85,0,.23-.05,.46-.16,.68-.64,1.34-3.15,2.35-6.15,2.35h-.22c-.15,0-.38,0-.72-.02-.27-.02-.51-.05-.67-.07h0c-.06-.01-.12-.02-.17-.03h-.01c-2.01-.29-3.6-1.04-4.22-1.99-.19-.29-.29-.59-.29-.91,0-.55,.3-1.06,.82-1.5,1-.84,2.81-1.43,4.92-1.52,.07-.2,.14-.38,.21-.56-3.96,.09-7.11,1.65-7.11,3.58,0,.22,.04,.43,.12,.64,.2,.53,.64,1.01,1.26,1.44,.22,.15,.46,.29,.72,.42,.26,.13,.54,.25,.84,.36,.84,.31,1.83,.53,2.9,.65,.17,.02,.39,.04,.64,.06,.55,.03,.97,.03,.97,.03,2.51,0,4.73-.6,6.08-1.51,.62-.42,1.06-.91,1.26-1.44,.08-.21,.12-.42,.12-.64,0-1.46-1.83-2.72-4.45-3.28" style="fill:#123274;"/></g></g><polygon points="15.57 51.31 15.57 51.7 16.47 51.7 15.45 54.68 17 54.68 17 54.29 16.04 54.29 17.06 51.31 15.57 51.31" style="fill:#9d9d9c;"/><g style="clip-path:url(#clippath-1);"><g><path d="M18.2,53.33c0-.17,0-.57-.26-.57s-.24,.4-.24,.57h.5Zm-.5,.3c0,.19,0,.71,.26,.71,.22,0,.26-.24,.26-.42h.39c0,.41-.18,.8-.66,.8-.63,0-.69-.67-.69-1.15s.05-1.18,.67-1.18,.69,.72,.69,1.18v.07h-.93Z" style="fill:#9d9d9c;"/><path d="M19.37,52.68h0c.09-.18,.23-.29,.46-.29,.45,0,.46,.4,.46,.74v1.55h-.42v-1.56c0-.15-.03-.36-.25-.36-.28,0-.26,.32-.26,.51v1.41h-.42v-2.26h.42v.26h0Z" style="fill:#9d9d9c;"/></g></g><polygon points="21.19 51.78 21.19 52.42 21.41 52.42 21.41 52.75 21.19 52.75 21.19 54.68 20.77 54.68 20.77 52.75 20.54 52.75 20.54 52.42 20.77 52.42 20.77 51.78 21.19 51.78" style="fill:#9d9d9c;"/><g style="clip-path:url(#clippath-2);"><g><path d="M22.09,52.7h0c.1-.2,.24-.31,.48-.31v.41h-.07c-.31,0-.41,.17-.41,.46v1.42h-.43v-2.26h.42v.28Z" style="fill:#9d9d9c;"/><path d="M23.78,53.55c0-.18,.02-.79-.26-.79-.31,0-.28,.6-.28,.79s-.03,.79,.28,.79c.28,0,.26-.61,.26-.79m-.01,.84h0c-.09,.2-.17,.33-.41,.33-.52,0-.53-.83-.53-1.19s.01-1.13,.55-1.13c.2,0,.33,.12,.4,.29h0v-.25h.42v2.26h-.42v-.29Z" style="fill:#9d9d9c;"/></g></g><rect x="24.57" y="50.97" width=".42" height="3.71" style="fill:#9d9d9c;"/><g style="clip-path:url(#clippath-3);"><g><path d="M26.24,53.33c0-.17,0-.57-.26-.57s-.25,.4-.25,.57h.5Zm-.5,.3c0,.19,0,.71,.26,.71,.22,0,.26-.24,.26-.42h.39c0,.41-.18,.8-.66,.8-.63,0-.69-.67-.69-1.15s.05-1.18,.67-1.18,.69,.72,.69,1.18v.07h-.93Z" style="fill:#9d9d9c;"/><path d="M27.42,52.7h0c.1-.2,.24-.31,.48-.31v.41h-.07c-.31,0-.41,.17-.41,.46v1.42h-.43v-2.26h.42v.28Z" style="fill:#9d9d9c;"/></g></g><path d="M30.01,53.19l-.17-1.22h0l-.27,1.72h.54l-.09-.49h0Zm0-1.88l.72,3.37h-.45l-.12-.66h-.67l-.12,.66h-.44l.73-3.37h.35Z" style="fill:#9d9d9c;"/><g style="clip-path:url(#clippath-4);"><g><path d="M31.91,53.55c0-.18,.03-.79-.28-.79-.28,0-.26,.61-.26,.79s-.02,.79,.26,.79c.31,0,.28-.61,.28-.79m-.95-2.58h.42v1.7h0c.09-.17,.19-.29,.4-.29,.53,0,.55,.76,.55,1.13s0,1.19-.53,1.19c-.24,0-.33-.13-.41-.33h0v.29h-.42v-3.71h0Z" style="fill:#9d9d9c;"/><path d="M33.09,52.7h0c.1-.2,.25-.31,.48-.31v.41h-.07c-.31,0-.41,.17-.41,.46v1.42h-.43v-2.26h.42v.28h0Z" style="fill:#9d9d9c;"/><path d="M34.73,53.33c0-.17,0-.57-.26-.57s-.24,.4-.24,.57h.5Zm-.5,.3c0,.19,0,.71,.26,.71,.22,0,.26-.24,.26-.42h.39c0,.41-.18,.8-.66,.8-.63,0-.69-.67-.69-1.15s.05-1.18,.67-1.18,.69,.72,.69,1.18v.07h-.93Z" style="fill:#9d9d9c;"/><path d="M36.42,52.89h0c-.05-.07-.1-.1-.2-.11-.36,0-.37,.51-.37,.75s0,.79,.36,.79c.09,0,.15-.03,.21-.09v.39c-.11,.06-.21,.09-.34,.09-.6,0-.67-.7-.67-1.15s.05-1.18,.67-1.18c.12,0,.22,.02,.34,.08v.43Z" style="fill:#9d9d9c;"/><path d="M37.15,50.97v1.71h0c.09-.18,.23-.29,.46-.29,.45,0,.46,.4,.46,.74v1.55h-.42v-1.56c0-.15-.03-.36-.25-.36-.28,0-.26,.32-.26,.51v1.41h-.42v-3.71h.43Z" style="fill:#9d9d9c;"/><path d="M38.89,52.68h0c.09-.18,.23-.29,.46-.29,.45,0,.46,.4,.46,.74v1.55h-.42v-1.56c0-.15-.03-.36-.25-.36-.28,0-.26,.32-.26,.51v1.41h-.42v-2.26h.42v.26h0Z" style="fill:#9d9d9c;"/><path d="M40.62,52.42v1.41c0,.2-.03,.5,.26,.5s.25-.27,.25-.47v-1.44h.42v1.53c0,.46-.14,.77-.65,.77-.61,0-.7-.34-.7-.86v-1.44h.42Z" style="fill:#9d9d9c;"/><path d="M42.36,52.68h0c.09-.18,.23-.29,.46-.29,.45,0,.46,.4,.46,.74v1.55h-.42v-1.56c0-.15-.03-.36-.25-.36-.28,0-.26,.32-.26,.51v1.41h-.42v-2.26h.42v.26h0Z" style="fill:#9d9d9c;"/><path d="M44.3,52.76c-.29,0-.26,.62-.26,.78s-.03,.8,.28,.8,.26-.6,.26-.78,0-.8-.27-.8m.69,1.94c0,.81-.24,.94-.69,.94-.41,0-.67-.23-.67-.65v-.06h.41c0,.16,.06,.34,.27,.34,.28,0,.26-.27,.26-.48v-.38h0c-.06,.18-.2,.31-.4,.31-.54,0-.55-.77-.55-1.15s0-1.18,.54-1.18c.22,0,.32,.12,.41,.31h0v-.27h.43v2.28h0Z" style="fill:#9d9d9c;"/><path d="M46.23,52.88c-.08-.07-.21-.12-.31-.12-.15,0-.29,.09-.29,.24,0,.38,.7,.4,.7,1.04,0,.4-.25,.67-.65,.67-.15,0-.24-.03-.37-.11v-.41c.11,.09,.21,.14,.35,.14,.18,0,.28-.11,.28-.29,0-.4-.7-.43-.7-1.05,0-.36,.25-.62,.6-.62,.14,0,.26,.03,.38,.1v.4h0Z" style="fill:#9d9d9c;"/></g></g><rect x="46.56" y="53.35" width=".8" height=".34" style="fill:#9d9d9c;"/><g style="clip-path:url(#clippath-5);"><g><path d="M48.22,51.69v2.61c.74,.02,.7-.67,.7-1.25,0-.52,.05-1.41-.7-1.36m.05-.38c.53,0,1.13,.03,1.13,1.75,0,1.56-.52,1.63-1.32,1.63h-.31v-3.37h.5Z" style="fill:#9d9d9c;"/><path d="M50.2,54.68h-.42v-2.26h.42v2.26Zm-.49-2.94c0-.15,.12-.28,.28-.28,.15,0,.28,.12,.28,.28s-.13,.28-.28,.28-.28-.12-.28-.28" style="fill:#9d9d9c;"/><path d="M51.45,53.33c0-.17,0-.57-.26-.57s-.25,.4-.25,.57h.5Zm-.5,.3c0,.19,0,.71,.26,.71,.22,0,.26-.24,.26-.42h.39c0,.41-.18,.8-.66,.8-.63,0-.69-.67-.69-1.15s.05-1.18,.67-1.18,.69,.72,.69,1.18v.07h-.93Z" style="fill:#9d9d9c;"/><path d="M52.62,52.68h0c.09-.18,.23-.29,.46-.29,.45,0,.46,.4,.46,.74v1.55h-.42v-1.56c0-.15-.03-.36-.25-.36-.28,0-.26,.32-.26,.51v1.41h-.42v-2.26h.42v.26h0Z" style="fill:#9d9d9c;"/><path d="M54.79,52.88c-.08-.07-.21-.12-.31-.12-.15,0-.29,.09-.29,.24,0,.38,.7,.4,.7,1.04,0,.4-.25,.67-.65,.67-.15,0-.24-.03-.37-.11v-.41c.11,.09,.21,.14,.35,.14,.18,0,.28-.11,.28-.29,0-.4-.7-.43-.7-1.05,0-.36,.25-.62,.6-.62,.14,0,.26,.03,.38,.1v.4h0Z" style="fill:#9d9d9c;"/></g></g><polygon points="55.68 51.78 55.68 52.42 55.9 52.42 55.9 52.75 55.68 52.75 55.68 54.68 55.26 54.68 55.26 52.75 55.03 52.75 55.03 52.42 55.26 52.42 55.26 51.78 55.68 51.78" style="fill:#9d9d9c;"/><g style="clip-path:url(#clippath-6);"><g><path d="M58.77,52.9v.05c0,.64,.09,1.77-.81,1.77-.8,0-.89-.77-.89-1.72s.08-1.74,.86-1.74c.48,0,.7,.24,.82,.69l-.43,.17c-.04-.22-.11-.44-.38-.44-.37,0-.39,.5-.39,1.32,0,1.17,.2,1.3,.39,1.3,.18,0,.38-.03,.38-.83v-.18h-.38v-.39h.82Z" style="fill:#9d9d9c;"/><path d="M59.56,52.7h0c.09-.19,.23-.31,.44-.31,.2,0,.36,.12,.41,.31h0c.09-.2,.24-.31,.46-.31,.4,0,.5,.25,.5,.55v1.75h-.42v-1.58c0-.17-.02-.34-.23-.34-.3,0-.27,.28-.27,.48v1.44h-.42v-1.53c0-.18,0-.38-.24-.38-.26,0-.25,.29-.26,.48v1.44h-.42v-2.26h.43v.28h0Z" style="fill:#9d9d9c;"/><path d="M62.72,53.55c0-.18,.03-.79-.28-.79-.28,0-.26,.61-.26,.79s-.02,.79,.26,.79c.31,0,.28-.61,.28-.79m-.95-2.58h.42v1.7h0c.09-.17,.19-.29,.4-.29,.53,0,.55,.76,.55,1.13s0,1.19-.53,1.19c-.24,0-.33-.13-.41-.33h0v.29h-.42v-3.71h0Z" style="fill:#9d9d9c;"/></g></g><polygon points="64.67 51.31 64.67 52.62 64 52.62 64 51.31 63.55 51.31 63.55 54.68 64 54.68 64 53.01 64.67 53.01 64.67 54.68 65.12 54.68 65.12 51.31 64.67 51.31" style="fill:#9d9d9c;"/><path d="M37.99,45.09l2.63-5.84,.45,5.84h-3.09Zm6.91-11.55h-6.3l-9.05,16.84h6.43l1.01-1.95h4.32l.42,1.95,4.41,.02,1.13-5.31-2.37-11.54h0Z" style="fill:#123274;"/><g style="clip-path:url(#clippath-7);"><path d="M56.8,45.09s-.46,0-.51,0c-.84,.09-1.62,0-2.3,0l1.24-6.18c.42,.04,.8,0,1.18,.04,.38,0,.76,.04,1.01,.21,2.03,1.23,1.07,5.54-.63,5.93m.59-11.6h-7.11l-3.55,16.88h10.03c2.24-.09,4.48-.89,6.01-2.79,1.73-2.16,2.5-4.7,2.5-7.15,0-3.51-1.86-6.81-7.87-6.94" style="fill:#123274;"/></g><polygon points="16.62 38.79 23.4 38.77 15.52 50.37 28.81 50.37 31.63 45.11 26.62 45.11 32.91 33.56 19.45 33.55 16.62 38.79" style="fill:#123274;"/></g></g><g id="Ebene_1-2-2"><path d="M119.46,39.65c.63,.23,1.68,.46,2.46,.46s1.3-.15,1.3-.61c0-.61-.66-.76-1.47-.98-1.29-.31-2.43-1.01-2.43-2.45,0-1.65,1.14-2.23,3.06-2.23,.77,0,1.91,.23,2.6,.46l-.32,1.68c-.86-.31-1.67-.46-2.14-.46-.75,0-1.06,.23-1.06,.54,0,.46,.49,.6,1.38,.83,1.29,.34,2.52,.84,2.52,2.46,0,1.71-1.45,2.45-3.44,2.45-.69,0-2.07-.15-2.75-.46l.29-1.68h0Zm-1.83-8.89l-2.14,.15v10.72h2.14v-10.87Zm-19.06,.76v2.45h2.14l-.15,1.53h-1.99v3.89c0,.52,.45,.7,.8,.7,.22,0,.46,0,1.38-.15l.2,1.5c-.78,.22-1.54,.34-2.11,.34-1.33,0-2.4-.57-2.4-2.1v-4.18h-1.07v-1.53h1.07v-2.3l2.14-.15h0Z" style="fill:#123274;"/><path d="M91.02,25.67l2.42-5.34,.41,5.34h-2.83Zm6.33-10.56h-5.78l-8.3,15.39h5.9l.93-1.78h3.96l.39,1.78h4.05l1.03-4.84-2.17-10.55Z" style="fill:#123274;"/><path d="M108.27,25.67h-.46c-.77,.07-1.49,0-2.11,0l1.14-5.65c.39,.04,.74,0,1.08,.04,.35,0,.7,.04,.93,.19,1.86,1.12,.98,5.06-.58,5.42m.54-10.6h-6.52l-3.26,15.43h9.2c2.05-.08,4.11-.81,5.51-2.55,1.59-1.97,2.29-4.29,2.29-6.54,0-3.21-1.71-6.22-7.22-6.34" style="fill:#123274;"/><polygon points="74.02 15.13 71.42 19.91 77.64 19.9 70.41 30.5 82.6 30.5 85.19 25.7 80.59 25.7 86.36 15.14 74.02 15.13" style="fill:#123274;"/><g><path d="M114.55,37.66c0-2.72-1.48-3.88-3.65-3.88-2.47,0-3.78,1.29-3.94,3.68h2.18c.11-1.48,.71-2.05,1.69-2.05,1.08,0,1.55,.62,1.55,2.25,0,1.86-.62,2.56-1.71,2.56-.73,0-1.17-.29-1.39-.96-.19,.78-.54,1.43-1.08,1.89,.62,.48,1.43,.7,2.39,.7,2.64,0,3.96-1.48,3.96-4.19" style="fill:#3aaa35;"/><path d="M101.41,37.97c0,2.72,1.48,3.88,3.65,3.88,2.47,0,3.78-1.29,3.94-3.68h-2.18c-.11,1.48-.71,2.05-1.69,2.05-1.08,0-1.55-.62-1.55-2.25,0-1.86,.62-2.56,1.71-2.56,.73,0,1.17,.29,1.39,.96,.19-.78,.54-1.43,1.08-1.89-.62-.48-1.43-.7-2.39-.7-2.64,0-3.96,1.48-3.96,4.19" style="fill:#123274;"/><path d="M139.98,28.9v.91c-.19,.1-.49,.19-.76,.19-.74,0-1.03-.56-1.03-1.2,0-.68,.25-1.24,1.05-1.24,.23,0,.52,.04,.71,.12l-.09,.21c-.14-.06-.35-.11-.6-.11-.6,0-.8,.44-.8,1.01,0,.52,.19,.97,.8,.97,.11,0,.3-.04,.47-.08v-.78h.26Zm-3.53-.1l1.09-1.22h.32l-.96,1.06,1.03,1.31h-.34l-.86-1.13-.28,.31v.81h-.26v-2.37h.26v1.22h0Zm-2.1,.99c0,.1,.08,.18,.18,.18s.18-.08,.18-.18-.08-.18-.18-.18-.18,.08-.18,.18m-1.24-1.64c.5,0,.74,.27,.74,.89s-.21,.96-.81,.96c-.5,0-.74-.27-.74-.89s.21-.96,.81-.96m-.06,1.65c.42,0,.55-.3,.55-.76,0-.41-.09-.69-.51-.69s-.55,.3-.55,.76c0,.41,.09,.69,.51,.69m-1.29-1.91c-.14-.06-.32-.11-.57-.11-.6,0-.76,.44-.76,1.01,0,.52,.16,.97,.76,.97,.16,0,.44-.07,.62-.16l.07,.19c-.19,.1-.45,.19-.73,.19-.74,0-.99-.56-.99-1.2,0-.68,.21-1.24,1.01-1.24,.23,0,.49,.04,.67,.12l-.09,.21h0Zm-4.54,.73c-.16-.19-.23-.33-.25-.54-.02-.32,.24-.52,.57-.52,.28,0,.51,.16,.52,.44,0,.31-.28,.49-.5,.66l.72,.73c.14-.17,.25-.44,.25-.72h.25c-.02,.32-.15,.63-.34,.89,.16,.14,.32,.22,.47,.24l-.08,.21c-.24,0-.41-.14-.57-.29-.21,.17-.42,.28-.81,.29-.48,0-.77-.24-.77-.65,0-.34,.27-.53,.54-.74m.14,.17c-.21,.15-.43,.29-.43,.56s.23,.44,.53,.44,.46-.08,.64-.23l-.75-.78Zm.06-.29c.2-.15,.38-.29,.38-.5,0-.15-.11-.25-.27-.25-.18,0-.31,.15-.31,.31,0,.15,.09,.29,.2,.44m-3.66-.91h-.26v2.37h.26v-1.12h1.27v1.12h.26v-2.37h-.26v1.03h-1.27v-1.03Zm-1.59,.78c-.23,0-.32,.04-.46,.07v1.31c.16,.04,.29,.06,.42,.06,.44,0,.55-.35,.55-.74,0-.32-.05-.69-.51-.69m-.71-.89l.25-.04v.87h.02c.19-.12,.34-.16,.53-.16,.51,0,.69,.42,.69,.89,0,.53-.23,.96-.81,.96-.29,0-.51-.09-.67-.14v-2.37Zm-2.43,.89c.3,0,.39,.22,.39,.5v1.09h.25v-1.2c0-.09,0-.17-.03-.24,.11-.06,.29-.15,.53-.15,.3,0,.4,.22,.4,.5v1.09h.25v-1.2c0-.4-.2-.61-.59-.61-.19,0-.44,.07-.65,.23-.09-.15-.25-.23-.49-.23-.19,0-.34,.06-.54,.18h-.02v-.14h-.25v1.77h.25v-1.47c.11-.05,.26-.12,.51-.12m-1.37,.53v.91c-.19,.1-.49,.19-.76,.19-.74,0-1.03-.56-1.03-1.2,0-.68,.25-1.24,1.05-1.24,.23,0,.52,.04,.71,.12l-.09,.21c-.14-.06-.35-.11-.6-.11-.6,0-.8,.44-.8,1.01,0,.52,.19,.97,.8,.97,.11,0,.3-.04,.47-.08v-.78h.26Z" style="fill:#123274;"/></g></g><g><path d="M64.22,76.5c0,.06-.01,.12-.04,.18-.03,.06-.06,.1-.1,.15-.04,.04-.09,.08-.15,.1-.06,.03-.12,.04-.19,.04s-.12-.01-.18-.04c-.06-.02-.11-.06-.15-.1s-.08-.09-.1-.15c-.03-.06-.04-.12-.04-.18s.01-.13,.04-.19c.02-.06,.06-.11,.1-.15s.09-.08,.15-.1c.06-.03,.12-.04,.18-.04s.13,.01,.19,.04c.06,.02,.11,.06,.15,.1,.04,.04,.08,.09,.1,.15,.03,.06,.04,.12,.04,.19Zm-.1,.9v3.08h-.74v-3.08h.74Z" style="fill:#123274;"/><path d="M65.57,77.77c.06-.06,.13-.12,.2-.17,.07-.05,.14-.1,.22-.14,.08-.04,.16-.07,.25-.09,.09-.02,.18-.03,.29-.03,.17,0,.32,.03,.45,.09,.13,.06,.24,.14,.33,.24,.09,.1,.15,.23,.2,.37,.04,.14,.07,.3,.07,.47v1.96h-.74v-1.96c0-.19-.04-.33-.13-.44-.09-.1-.22-.15-.39-.15-.13,0-.25,.03-.36,.09-.11,.06-.22,.14-.32,.24v2.23h-.74v-3.08h.45c.1,0,.16,.04,.19,.13l.05,.24Z" style="fill:#123274;"/><path d="M70.64,77.95h.19c.08,0,.14-.01,.19-.03,.05-.02,.09-.05,.13-.1l1.2-1.51c.05-.06,.1-.11,.16-.13,.06-.02,.12-.04,.21-.04h.7l-1.46,1.8c-.09,.11-.18,.19-.27,.23,.07,.02,.13,.06,.18,.1,.05,.04,.1,.1,.15,.17l1.51,2.03h-.71c-.1,0-.17-.01-.21-.04-.05-.03-.09-.07-.12-.12l-1.23-1.6c-.04-.05-.08-.09-.13-.11-.05-.02-.12-.03-.22-.03h-.25v1.91h-.81v-4.34h.81v1.82Z" style="fill:#123274;"/><path d="M74.97,77.35c.23,0,.44,.04,.62,.11,.19,.07,.35,.18,.48,.31,.13,.14,.24,.3,.31,.5,.07,.2,.11,.42,.11,.66s-.04,.46-.11,.66c-.07,.2-.17,.36-.31,.5-.13,.14-.29,.24-.48,.32-.19,.07-.39,.11-.62,.11s-.44-.04-.63-.11c-.19-.07-.35-.18-.48-.32-.13-.14-.24-.31-.31-.5-.07-.2-.11-.42-.11-.66s.04-.46,.11-.66c.07-.2,.18-.36,.31-.5,.13-.14,.29-.24,.48-.31,.19-.07,.4-.11,.63-.11Zm0,2.6c.26,0,.45-.09,.57-.26s.18-.42,.18-.76-.06-.58-.18-.76-.31-.26-.57-.26-.45,.09-.58,.26c-.12,.18-.19,.43-.19,.76s.06,.58,.19,.75,.32,.26,.58,.26Z" style="fill:#123274;"/><path d="M78.42,77.35c.23,0,.44,.04,.62,.11,.19,.07,.35,.18,.48,.31s.24,.3,.31,.5,.11,.42,.11,.66-.04,.46-.11,.66c-.07,.2-.17,.36-.31,.5-.13,.14-.29,.24-.48,.32-.19,.07-.39,.11-.62,.11s-.44-.04-.63-.11c-.19-.07-.35-.18-.48-.32-.13-.14-.24-.31-.31-.5-.07-.2-.11-.42-.11-.66s.04-.46,.11-.66c.07-.2,.18-.36,.31-.5,.13-.14,.29-.24,.48-.31,.19-.07,.4-.11,.63-.11Zm0,2.6c.26,0,.45-.09,.57-.26s.18-.42,.18-.76-.06-.58-.18-.76-.31-.26-.57-.26-.45,.09-.58,.26c-.12,.18-.19,.43-.19,.76s.06,.58,.19,.75,.32,.26,.58,.26Z" style="fill:#123274;"/><path d="M81.2,77.82c.13-.14,.27-.26,.43-.34s.35-.13,.56-.13c.17,0,.32,.04,.46,.1,.14,.07,.26,.17,.36,.3,.1,.13,.18,.3,.23,.49,.05,.2,.08,.42,.08,.67,0,.23-.03,.44-.09,.64-.06,.2-.15,.37-.27,.51-.12,.14-.25,.26-.42,.34s-.35,.12-.55,.12c-.17,0-.32-.03-.44-.08-.12-.05-.23-.13-.33-.22v1.26h-.74v-4.08h.45c.1,0,.16,.04,.19,.13l.06,.29Zm.04,1.86c.08,.1,.18,.17,.27,.22s.21,.06,.32,.06,.21-.02,.3-.06c.09-.04,.17-.11,.23-.19,.06-.09,.11-.19,.15-.33,.03-.13,.05-.29,.05-.46s-.01-.33-.04-.46-.07-.23-.12-.3c-.05-.08-.12-.13-.2-.17-.08-.04-.16-.05-.26-.05-.15,0-.29,.03-.39,.1-.11,.06-.21,.16-.31,.27v1.38Z" style="fill:#123274;"/><path d="M84.48,79.03c.01,.16,.04,.29,.08,.41,.04,.11,.1,.21,.17,.28,.07,.08,.16,.13,.26,.17,.1,.04,.21,.06,.33,.06s.22-.01,.31-.04c.09-.03,.16-.06,.23-.09,.07-.03,.12-.06,.17-.09s.1-.04,.14-.04c.06,0,.11,.02,.14,.07l.21,.27c-.08,.1-.17,.18-.28,.24-.1,.07-.21,.12-.32,.16-.11,.04-.22,.07-.34,.08-.11,.02-.23,.02-.33,.02-.21,0-.41-.04-.6-.11-.18-.07-.34-.18-.48-.32-.14-.14-.24-.31-.32-.52s-.12-.44-.12-.71c0-.21,.03-.41,.1-.59,.07-.19,.17-.35,.29-.48,.13-.14,.28-.25,.47-.33,.18-.08,.39-.12,.62-.12,.19,0,.37,.03,.54,.09,.16,.06,.3,.15,.42,.27,.12,.12,.21,.27,.28,.44s.1,.37,.1,.59c0,.11-.01,.19-.04,.23s-.07,.06-.14,.06h-1.9Zm1.41-.45c0-.1-.01-.19-.04-.27-.03-.08-.07-.16-.12-.22-.05-.06-.12-.12-.21-.15-.08-.04-.18-.06-.29-.06-.21,0-.38,.06-.5,.18s-.2,.29-.24,.52h1.4Z" style="fill:#123274;"/><path d="M87.81,77.93c.1-.18,.21-.33,.34-.43,.13-.1,.29-.16,.47-.16,.14,0,.26,.03,.34,.09l-.05,.55s-.02,.06-.04,.08c-.02,.01-.04,.02-.08,.02-.03,0-.07,0-.13-.02-.06,0-.12-.01-.17-.01-.08,0-.16,.01-.22,.04-.06,.02-.12,.06-.17,.1s-.1,.1-.13,.16c-.04,.06-.08,.14-.11,.22v1.9h-.74v-3.08h.43c.08,0,.13,.01,.16,.04,.03,.03,.05,.08,.06,.15l.05,.35Z" style="fill:#123274;"/><path d="M89.24,77.83c.35-.32,.78-.49,1.28-.49,.18,0,.34,.03,.48,.09,.14,.06,.26,.14,.36,.25,.1,.11,.17,.23,.22,.38,.05,.15,.08,.31,.08,.48v1.94h-.34c-.07,0-.12-.01-.16-.03-.04-.02-.07-.06-.09-.13l-.07-.22c-.08,.07-.15,.13-.23,.18s-.15,.1-.23,.13c-.08,.04-.17,.06-.26,.08-.09,.02-.19,.03-.3,.03-.13,0-.25-.02-.36-.05-.11-.03-.21-.09-.28-.16-.08-.07-.14-.16-.19-.26-.04-.1-.07-.23-.07-.36,0-.08,.01-.16,.04-.23,.03-.08,.07-.15,.13-.22,.06-.07,.14-.14,.23-.2,.09-.06,.21-.12,.35-.16s.3-.08,.48-.11c.18-.03,.39-.05,.62-.05v-.18c0-.21-.04-.36-.13-.46-.09-.1-.22-.15-.38-.15-.12,0-.22,.01-.3,.04s-.15,.06-.21,.09c-.06,.03-.11,.07-.16,.09-.05,.03-.1,.04-.16,.04-.05,0-.1-.01-.13-.04s-.06-.06-.09-.09l-.13-.24Zm1.7,1.33c-.21,.01-.39,.03-.54,.06-.15,.03-.26,.06-.35,.1-.09,.04-.15,.09-.19,.15-.04,.06-.06,.12-.06,.18,0,.13,.04,.22,.12,.28s.18,.08,.3,.08c.15,0,.28-.03,.39-.08,.11-.05,.22-.14,.33-.25v-.52Z" style="fill:#123274;"/><path d="M95.42,80.47h-.74v-2.52h-1.43v1.67c0,.1,.02,.17,.07,.23,.05,.05,.11,.08,.19,.08,.05,0,.08,0,.12-.02s.06-.02,.08-.03c.02-.01,.04-.02,.06-.04,.02-.01,.04-.02,.05-.02,.02,0,.04,0,.05,.02,.01,.01,.03,.03,.04,.05l.22,.36c-.11,.09-.23,.16-.37,.2-.14,.05-.29,.07-.44,.07-.27,0-.47-.08-.62-.23-.14-.15-.21-.36-.21-.62v-1.72h-.31s-.07-.01-.1-.04c-.03-.03-.04-.07-.04-.12v-.29l.5-.08,.16-.84s.03-.07,.06-.09c.03-.02,.06-.03,.11-.03h.38v.97h2.17v3.05Zm.13-3.99c0,.06-.01,.12-.04,.18-.03,.06-.06,.11-.1,.15s-.09,.08-.15,.1c-.06,.03-.12,.04-.19,.04s-.12-.01-.18-.04c-.06-.02-.1-.06-.15-.1s-.08-.09-.1-.15c-.03-.06-.04-.12-.04-.18s.01-.13,.04-.18c.03-.06,.06-.11,.1-.15s.09-.08,.15-.1c.06-.02,.12-.04,.18-.04s.13,.01,.19,.04c.06,.03,.11,.06,.15,.1s.08,.09,.1,.15c.03,.06,.04,.12,.04,.18Z" style="fill:#123274;"/><path d="M97.54,77.35c.23,0,.44,.04,.62,.11,.19,.07,.35,.18,.48,.31,.13,.14,.24,.3,.31,.5,.07,.2,.11,.42,.11,.66s-.04,.46-.11,.66c-.07,.2-.17,.36-.31,.5-.13,.14-.29,.24-.48,.32-.19,.07-.39,.11-.62,.11s-.44-.04-.63-.11c-.19-.07-.35-.18-.48-.32-.13-.14-.24-.31-.31-.5-.07-.2-.11-.42-.11-.66s.04-.46,.11-.66,.18-.36,.31-.5c.13-.14,.29-.24,.48-.31,.19-.07,.4-.11,.63-.11Zm0,2.6c.26,0,.45-.09,.57-.26s.18-.42,.18-.76-.06-.58-.18-.76-.31-.26-.57-.26-.45,.09-.58,.26c-.12,.18-.19,.43-.19,.76s.06,.58,.19,.75,.32,.26,.58,.26Z" style="fill:#123274;"/><path d="M100.32,77.77c.06-.06,.13-.12,.2-.17,.07-.05,.14-.1,.22-.14s.16-.07,.25-.09c.09-.02,.18-.03,.29-.03,.17,0,.32,.03,.45,.09,.13,.06,.24,.14,.33,.24,.09,.1,.15,.23,.2,.37,.04,.14,.07,.3,.07,.47v1.96h-.74v-1.96c0-.19-.04-.33-.13-.44-.09-.1-.22-.15-.39-.15-.13,0-.25,.03-.36,.09s-.22,.14-.32,.24v2.23h-.74v-3.08h.45c.1,0,.16,.04,.19,.13l.05,.24Z" style="fill:#123274;"/></g></g></svg>