<?xml version="1.0" encoding="UTF-8"?><svg xmlns="http://www.w3.org/2000/svg" viewBox="0 0 1192.85 574.02"><defs><style>.d{fill:#6972a6;}.e{fill:#8187b5;}.f{fill:#989cc4;}.g{fill:#b1b3d3;}.h{fill:#cacbe2;}.i{fill:#123274;}.j{fill:#3e4f8b;}.k{fill:#2a3f7f;}.l{fill:#485792;}.m{fill:#344785;}.n{fill:#536099;}.o{fill:#5e699f;}.p{fill:#757cae;}</style></defs><g id="a"/><g id="b"><g id="c"><g><polyline class="h" points="1095.91 519.64 950.96 388.64 138.3 388.64 40 525.75 40 525.75 0 574.02 1192.85 574.02"/><polygon class="i" points="106.47 334.52 145.06 353.25 157.17 353.25 106.47 334.52 106.47 334.52"/><polygon class="e" points="77.84 369.48 86.18 354.39 106.47 334.52 96.31 363.69 77.58 387.64 42.19 402.58 77.84 369.48 77.84 369.48"/><polygon class="i" points="125.85 365.67 117.55 359.32 111.6 348.79 121.42 357.23 133.54 363.69 144.56 365.67 132.17 368.55 125.85 365.67 125.85 365.67"/><polygon class="f" points="80.85 461.86 203.13 245.58 289.04 288.78 316.14 191.56 383.87 140.1 458.37 0 611.66 169.22 686.39 154.39 769.91 266.08 821.83 291.64 866.48 321.13 913.46 383.03 941.49 374.56 1016.51 451.9 1039.62 436.99 1064.35 486.73 1083.26 507.92 1096.46 520.45 1064.35 518.05 1011.98 501.47 913.8 533.71 856.34 538.31 824.25 528.88 785.14 554.76 668.4 557.53 837.8 492.47 733.76 495.02 750.23 460.61 650.35 495.02 619.3 495.02 467.22 571.48 530.17 517.77 497.65 513.36 440.9 512.72 398.97 540.68 354.1 561.7 398.97 497.05 409.69 433.2 409.69 396.46 392.31 431.46 364.79 452.37 173.83 543.47 233.56 448.31 184.42 468.46 134.91 477.83 41.74 525.42 80.85 461.86 80.85 461.86"/><polygon class="i" points="458.37 0 423.82 140.1 430.03 234.7 383.87 140.1 458.37 0 458.37 0"/><polygon class="n" points="686.39 154.39 754.65 315.47 769.91 266.08 686.39 154.39 686.39 154.39"/><polygon class="i" points="400.52 237.81 419.16 268.87 289.04 288.78 316.14 191.56 400.52 237.81 400.52 237.81"/><polygon class="n" points="289.04 288.78 354.1 334.1 373.09 418.78 331.06 468.46 364.79 452.37 392.31 431.46 409.69 396.46 419.16 268.87 289.04 288.78 289.04 288.78"/><polygon class="k" points="354.1 334.1 413.33 347.45 409.69 396.46 373.09 418.78 354.1 334.1 354.1 334.1"/><polygon class="k" points="203.13 245.58 289.04 288.78 246.09 310.81 203.13 245.58 203.13 245.58"/><polygon class="j" points="289.04 288.78 354.1 334.1 373.09 418.78 246.09 310.81 289.04 288.78 289.04 288.78"/><polygon class="l" points="246.09 310.81 152.39 385.81 80.85 461.86 41.74 525.42 134.91 477.83 164.04 400.96 246.09 310.81 246.09 310.81"/><polygon class="n" points="233.56 448.31 173.83 543.47 271.2 448.31 373.09 418.78 330.54 382.6 251.4 418.78 233.56 448.31 233.56 448.31"/><polygon class="i" points="251.4 418.78 164.04 400.96 134.91 477.83 184.42 468.46 251.4 418.78 251.4 418.78"/><polygon class="i" points="246.09 310.81 203.13 245.58 80.85 461.86 152.39 385.81 246.09 310.81 246.09 310.81"/><polygon class="m" points="330.54 382.6 246.09 310.81 164.04 400.96 251.4 418.78 330.54 382.6 330.54 382.6"/><polygon class="k" points="271.2 448.31 373.09 418.78 331.06 468.46 259.53 502.59 271.2 448.31 271.2 448.31"/><polygon class="g" points="611.66 169.22 419.16 268.87 430.03 234.7 485.95 178.78 549.63 140.1 611.66 169.22 611.66 169.22"/><polygon class="e" points="686.39 154.39 672.72 278.19 590.79 487.87 754.65 315.47 686.39 154.39 686.39 154.39"/><polygon class="d" points="409.69 396.46 409.69 396.46 585.71 353.72 672.72 278.19 635.77 372.74 585.71 400.96 515.41 409.44 480.87 460.68 440.9 512.72 398.97 540.68 436.61 487.87 475.05 409.44 430.03 418.78 409.69 396.46 409.69 396.46"/><polygon class="h" points="413.33 347.45 499.92 346.53 585.71 353.72 409.69 396.46 413.33 347.45 413.33 347.45"/><polygon class="j" points="686.39 154.39 678.8 223.08 611.66 169.22 686.39 154.39 686.39 154.39"/><polygon class="h" points="678.8 223.08 545.74 227.71 419.16 268.87 611.66 169.22 678.8 223.08 678.8 223.08"/><polygon class="e" points="545.74 227.71 481.29 288.78 413.33 347.45 520.12 306.92 678.8 223.08 545.74 227.71 545.74 227.71"/><polygon class="j" points="259.53 502.59 271.2 448.31 173.83 543.47 259.53 502.59 259.53 502.59"/><polygon class="g" points="398.97 497.05 436.61 487.87 398.97 540.68 354.1 561.7 398.97 497.05 398.97 497.05"/><polygon class="j" points="754.65 315.47 672.72 278.19 686.39 154.39 754.65 315.47 754.65 315.47"/><polygon class="p" points="866.48 321.13 786.49 371.49 750.23 460.61 798.91 380.7 913.46 383.03 866.48 321.13 866.48 321.13"/><polygon class="g" points="1016.51 451.9 990.73 477.77 913.8 533.71 987.63 437.39 941.49 374.56 1016.51 451.9 1016.51 451.9"/><polygon class="g" points="1064.35 518.05 1096.46 520.45 1083.26 507.92 1064.35 486.73 1039.62 436.99 1051.31 487.87 1072.28 504.96 1064.35 518.05 1064.35 518.05"/><polygon class="g" points="837.8 492.47 883.56 454.13 831.85 468.46 733.76 495.02 837.8 492.47 837.8 492.47"/><polygon class="o" points="913.46 383.03 798.91 380.7 750.23 460.61 733.76 495.02 913.46 383.03 913.46 383.03"/><polygon class="h" points="883.56 454.13 941.49 374.56 913.46 383.03 733.76 495.02 883.56 454.13 883.56 454.13"/><polygon class="h" points="1039.62 436.99 1016.51 451.9 990.73 477.77 913.8 533.71 1011.98 501.47 1023.35 454.13 1039.62 436.99 1039.62 436.99"/><polygon class="g" points="824.25 528.88 872.69 511.17 895.86 502.59 855.18 538.31 856.34 538.31 824.25 528.88 824.25 528.88"/><polygon class="g" points="785.14 554.76 722.03 543.47 734.63 532.12 668.4 557.53 785.14 554.76 785.14 554.76"/><polygon class="j" points="383.87 140.1 430.03 234.7 419.16 268.87 400.52 237.81 316.14 191.56 383.87 140.1 383.87 140.1"/><polygon class="d" points="611.66 169.22 458.37 0 476.63 51.42 549.63 140.1 611.66 169.22 611.66 169.22"/><polygon class="p" points="821.83 291.64 765.91 371.49 619.3 495.02 467.22 571.48 530.17 517.77 590.79 487.87 754.65 315.47 769.91 266.08 821.83 291.64 821.83 291.64"/><polygon class="i" points="1046.85 307.15 986.2 369.48 1004.86 361.62 1016.53 354.71 1046.85 307.15 1046.85 307.15"/><polygon class="i" points="950.35 334.52 911.76 353.25 899.65 353.25 950.35 334.52 950.35 334.52"/><polygon class="e" points="978.98 369.48 970.64 354.39 950.35 334.52 960.51 363.69 979.24 387.64 1021.63 402.58 978.98 369.48 978.98 369.48"/><polygon class="e" points="1192.85 400.03 1153.53 370.89 1123.83 363.69 1076.68 318.32 1068.34 314.84 1053.45 301.13 1061.79 318.32 1072.62 327.59 1104.08 368.55 1112.42 385.73 1157.1 392.28 1192.85 451.51 1192.85 400.03 1192.85 400.03"/><polygon class="e" points="1123.83 416.82 1111.83 406.27 1098.13 392.28 1090.35 376.32 1072.62 348.79 1083.83 376.32 1090.35 402.58 1113.02 420.02 1157.7 437.61 1172 442.32 1123.83 416.82 1123.83 416.82"/><polygon class="i" points="1033.23 368.55 1042.09 343.89 1035.38 356.22 1033.23 360.11 1027.04 368.55 1019.09 372.42 1011.94 383.94 1019.89 376.32 1030.21 373.22 1033.23 368.55 1033.23 368.55"/><polygon class="i" points="930.97 365.67 939.27 359.32 945.22 348.79 935.4 357.23 923.28 363.69 912.26 365.67 924.65 368.55 930.97 365.67 930.97 365.67"/></g></g></g></svg>