<?xml version="1.0" encoding="UTF-8"?><svg xmlns="http://www.w3.org/2000/svg" viewBox="0 0 1152.85 665.02"><defs><style>.d{fill:#6972a6;}.e{fill:#8187b5;}.f{fill:#989cc4;}.g{fill:#b1b3d3;}.h{fill:#cacbe2;}.i{fill:#123274;}.j{fill:#3e4f8b;}.k{fill:#2a3f7f;}.l{fill:#485792;}.m{fill:#344785;}.n{fill:#536099;}.o{fill:#5e699f;}.p{fill:#757cae;}</style></defs><g id="a"/><g id="b"><g id="c"><g><polygon class="h" points="0 525.75 0 665.02 1152.85 665.02 1152.85 571.48 1055.91 519.64 910.96 388.64 98.3 388.64 0 525.75 0 525.75"/><polygon class="i" points="66.47 334.52 105.06 353.25 117.17 353.25 66.47 334.52 66.47 334.52"/><polygon class="e" points="37.84 369.48 46.18 354.39 66.47 334.52 56.31 363.69 37.58 387.64 2.19 402.58 37.84 369.48 37.84 369.48"/><polygon class="i" points="85.85 365.67 77.55 359.32 71.6 348.79 81.42 357.23 93.54 363.69 104.56 365.67 92.17 368.55 85.85 365.67 85.85 365.67"/><polygon class="f" points="40.85 461.86 163.13 245.58 249.04 288.78 276.14 191.56 343.87 140.1 418.37 0 571.66 169.22 646.39 154.39 729.91 266.08 781.83 291.64 826.48 321.13 873.46 383.03 901.49 374.56 976.51 451.9 999.62 436.99 1024.35 486.73 1043.26 507.92 1056.46 520.45 1024.35 518.05 971.98 501.47 873.8 533.71 816.34 538.31 784.25 528.88 745.14 554.76 628.4 557.53 797.8 492.47 693.76 495.02 710.23 460.61 610.35 495.02 579.3 495.02 427.22 571.48 490.17 517.77 457.65 513.36 400.9 512.72 358.97 540.68 314.1 561.7 358.97 497.05 369.69 433.2 369.69 396.46 352.31 431.46 324.79 452.37 133.83 543.47 193.56 448.31 144.42 468.46 94.91 477.83 1.74 525.42 40.85 461.86 40.85 461.86"/><polygon class="i" points="418.37 0 383.82 140.1 390.03 234.7 343.87 140.1 418.37 0 418.37 0"/><polygon class="n" points="646.39 154.39 714.65 315.47 729.91 266.08 646.39 154.39 646.39 154.39"/><polygon class="i" points="360.52 237.81 379.16 268.87 249.04 288.78 276.14 191.56 360.52 237.81 360.52 237.81"/><polygon class="n" points="249.04 288.78 314.1 334.1 333.09 418.78 291.06 468.46 324.79 452.37 352.31 431.46 369.69 396.46 379.16 268.87 249.04 288.78 249.04 288.78"/><polygon class="k" points="314.1 334.1 373.33 347.45 369.69 396.46 333.09 418.78 314.1 334.1 314.1 334.1"/><polygon class="k" points="163.13 245.58 249.04 288.78 206.09 310.81 163.13 245.58 163.13 245.58"/><polygon class="j" points="249.04 288.78 314.1 334.1 333.09 418.78 206.09 310.81 249.04 288.78 249.04 288.78"/><polygon class="l" points="206.09 310.81 112.39 385.81 40.85 461.86 1.74 525.42 94.91 477.83 124.04 400.96 206.09 310.81 206.09 310.81"/><polygon class="n" points="193.56 448.31 133.83 543.47 231.2 448.31 333.09 418.78 290.54 382.6 211.4 418.78 193.56 448.31 193.56 448.31"/><polygon class="i" points="211.4 418.78 124.04 400.96 94.91 477.83 144.42 468.46 211.4 418.78 211.4 418.78"/><polygon class="i" points="206.09 310.81 163.13 245.58 40.85 461.86 112.39 385.81 206.09 310.81 206.09 310.81"/><polygon class="m" points="290.54 382.6 206.09 310.81 124.04 400.96 211.4 418.78 290.54 382.6 290.54 382.6"/><polygon class="k" points="231.2 448.31 333.09 418.78 291.06 468.46 219.53 502.59 231.2 448.31 231.2 448.31"/><polygon class="g" points="571.66 169.22 379.16 268.87 390.03 234.7 445.95 178.78 509.63 140.1 571.66 169.22 571.66 169.22"/><polygon class="e" points="646.39 154.39 632.72 278.19 550.79 487.87 714.65 315.47 646.39 154.39 646.39 154.39"/><polygon class="d" points="369.69 396.46 369.69 396.46 545.71 353.72 632.72 278.19 595.77 372.74 545.71 400.96 475.41 409.44 440.87 460.68 400.9 512.72 358.97 540.68 396.61 487.87 435.05 409.44 390.03 418.78 369.69 396.46 369.69 396.46"/><polygon class="h" points="373.33 347.45 459.92 346.53 545.71 353.72 369.69 396.46 373.33 347.45 373.33 347.45"/><polygon class="j" points="646.39 154.39 638.8 223.08 571.66 169.22 646.39 154.39 646.39 154.39"/><polygon class="h" points="638.8 223.08 505.74 227.71 379.16 268.87 571.66 169.22 638.8 223.08 638.8 223.08"/><polygon class="e" points="505.74 227.71 441.29 288.78 373.33 347.45 480.12 306.92 638.8 223.08 505.74 227.71 505.74 227.71"/><polygon class="j" points="219.53 502.59 231.2 448.31 133.83 543.47 219.53 502.59 219.53 502.59"/><polygon class="g" points="358.97 497.05 396.61 487.87 358.97 540.68 314.1 561.7 358.97 497.05 358.97 497.05"/><polygon class="j" points="714.65 315.47 632.72 278.19 646.39 154.39 714.65 315.47 714.65 315.47"/><polygon class="p" points="826.48 321.13 746.49 371.49 710.23 460.61 758.91 380.7 873.46 383.03 826.48 321.13 826.48 321.13"/><polygon class="g" points="976.51 451.9 950.73 477.77 873.8 533.71 947.63 437.39 901.49 374.56 976.51 451.9 976.51 451.9"/><polygon class="g" points="1024.35 518.05 1056.46 520.45 1043.26 507.92 1024.35 486.73 999.62 436.99 1011.31 487.87 1032.28 504.96 1024.35 518.05 1024.35 518.05"/><polygon class="g" points="797.8 492.47 843.56 454.13 791.85 468.46 693.76 495.02 797.8 492.47 797.8 492.47"/><polygon class="o" points="873.46 383.03 758.91 380.7 710.23 460.61 693.76 495.02 873.46 383.03 873.46 383.03"/><polygon class="h" points="843.56 454.13 901.49 374.56 873.46 383.03 693.76 495.02 843.56 454.13 843.56 454.13"/><polygon class="h" points="999.62 436.99 976.51 451.9 950.73 477.77 873.8 533.71 971.98 501.47 983.35 454.13 999.62 436.99 999.62 436.99"/><polygon class="g" points="784.25 528.88 832.69 511.17 855.86 502.59 815.18 538.31 816.34 538.31 784.25 528.88 784.25 528.88"/><polygon class="g" points="745.14 554.76 682.03 543.47 694.63 532.12 628.4 557.53 745.14 554.76 745.14 554.76"/><polygon class="j" points="343.87 140.1 390.03 234.7 379.16 268.87 360.52 237.81 276.14 191.56 343.87 140.1 343.87 140.1"/><polygon class="d" points="571.66 169.22 418.37 0 436.63 51.42 509.63 140.1 571.66 169.22 571.66 169.22"/><polygon class="p" points="781.83 291.64 725.91 371.49 579.3 495.02 427.22 571.48 490.17 517.77 550.79 487.87 714.65 315.47 729.91 266.08 781.83 291.64 781.83 291.64"/><polygon class="i" points="1006.85 307.15 946.2 369.48 964.86 361.62 976.53 354.71 1006.85 307.15 1006.85 307.15"/><polygon class="i" points="910.35 334.52 871.76 353.25 859.65 353.25 910.35 334.52 910.35 334.52"/><polygon class="e" points="938.98 369.48 930.64 354.39 910.35 334.52 920.51 363.69 939.24 387.64 981.63 402.58 938.98 369.48 938.98 369.48"/><polygon class="e" points="1152.85 400.03 1113.53 370.89 1083.83 363.69 1036.68 318.32 1028.34 314.84 1013.45 301.13 1021.79 318.32 1032.62 327.59 1064.08 368.55 1072.42 385.73 1117.1 392.28 1152.85 451.51 1152.85 400.03 1152.85 400.03"/><polygon class="e" points="1083.83 416.82 1071.83 406.27 1058.13 392.28 1050.35 376.32 1032.62 348.79 1043.83 376.32 1050.35 402.58 1073.02 420.02 1117.7 437.61 1132 442.32 1083.83 416.82 1083.83 416.82"/><polygon class="i" points="993.23 368.55 1002.09 343.89 995.38 356.22 993.23 360.11 987.04 368.55 979.09 372.42 971.94 383.94 979.89 376.32 990.21 373.22 993.23 368.55 993.23 368.55"/><polygon class="i" points="890.97 365.67 899.27 359.32 905.22 348.79 895.4 357.23 883.28 363.69 872.26 365.67 884.65 368.55 890.97 365.67 890.97 365.67"/></g></g></g></svg>