<?xml version="1.0" encoding="UTF-8"?><svg id="Ebene_2" xmlns="http://www.w3.org/2000/svg" viewBox="0 0 80.11 9.82"><g id="Ebene_1-2"><g><path d="M20.64,3.14c-.07-.27-.16-.51-.28-.73-.12-.22-.27-.42-.46-.58s-.41-.29-.66-.38c-.25-.09-.55-.14-.88-.14-.49,0-.91,.1-1.27,.3s-.65,.46-.87,.79c-.22,.33-.39,.71-.5,1.13s-.16,.85-.16,1.29,.05,.87,.16,1.29c.11,.42,.27,.8,.5,1.13,.22,.33,.51,.59,.87,.79,.36,.2,.78,.3,1.27,.3,.36,0,.68-.06,.95-.19,.27-.12,.51-.3,.71-.52,.2-.22,.35-.47,.46-.77,.11-.29,.18-.61,.22-.94h1.57c-.03,.55-.15,1.05-.35,1.51s-.47,.85-.82,1.18c-.34,.33-.75,.59-1.21,.77-.46,.18-.97,.27-1.53,.27-.69,0-1.3-.13-1.85-.38s-1.01-.6-1.38-1.04c-.38-.44-.67-.95-.87-1.53s-.3-1.21-.3-1.87,.1-1.27,.3-1.85,.49-1.09,.87-1.53c.38-.44,.84-.79,1.38-1.04s1.16-.39,1.85-.39c.52,0,1,.07,1.46,.21s.86,.35,1.2,.62,.63,.6,.84,.99c.21,.39,.35,.83,.4,1.33h-1.61Z" style="fill:#1d1d1b;"/><path d="M23.56,.22h1.47V9.42h-1.47V.22Z" style="fill:#1d1d1b;"/><path d="M26.66,.22h1.47V1.61h-1.47V.22Zm0,2.54h1.47v6.66h-1.47V2.76Z" style="fill:#1d1d1b;"/><path d="M34.22,4.98c-.06-.41-.23-.72-.5-.93-.27-.21-.61-.32-1.02-.32-.19,0-.39,.03-.61,.1-.21,.06-.41,.18-.59,.36-.18,.18-.33,.42-.45,.73s-.18,.72-.18,1.23c0,.28,.03,.55,.1,.82,.06,.28,.17,.52,.31,.73s.32,.39,.55,.52c.22,.13,.49,.2,.81,.2,.43,0,.78-.13,1.06-.4,.28-.27,.45-.64,.52-1.12h1.47c-.14,.87-.47,1.53-.99,1.99-.52,.46-1.21,.69-2.07,.69-.52,0-.99-.09-1.38-.26-.4-.18-.74-.42-1.01-.72-.27-.3-.48-.67-.62-1.09-.14-.42-.21-.88-.21-1.37s.07-.97,.21-1.4c.14-.44,.34-.82,.62-1.14,.27-.32,.62-.58,1.02-.76s.89-.28,1.44-.28c.39,0,.75,.05,1.1,.15,.35,.1,.66,.25,.93,.44,.27,.2,.49,.45,.66,.75,.17,.3,.27,.66,.31,1.07h-1.47Z" style="fill:#1d1d1b;"/><path d="M36.93,.22h1.47V5.45l2.65-2.69h1.8l-2.55,2.45,2.79,4.21h-1.79l-2.04-3.23-.88,.85v2.38h-1.47V.22Z" style="fill:#1d1d1b;"/><path d="M47.93,0c.69,0,1.3,.13,1.85,.39,.54,.26,1.01,.61,1.38,1.04,.38,.44,.67,.95,.87,1.53,.2,.58,.3,1.2,.3,1.85s-.1,1.28-.3,1.87c-.2,.58-.49,1.09-.87,1.53-.38,.44-.84,.78-1.38,1.04-.55,.25-1.16,.38-1.85,.38s-1.3-.13-1.85-.38c-.55-.25-1.01-.6-1.38-1.04-.38-.44-.67-.95-.87-1.53s-.3-1.21-.3-1.87,.1-1.27,.3-1.85,.49-1.09,.87-1.53c.38-.44,.84-.79,1.38-1.04,.54-.26,1.16-.39,1.85-.39Zm0,1.31c-.49,0-.91,.1-1.27,.3s-.65,.46-.87,.79-.39,.71-.5,1.13-.16,.85-.16,1.29,.05,.87,.16,1.29c.11,.42,.27,.8,.5,1.13,.22,.33,.51,.59,.87,.79,.36,.2,.78,.3,1.27,.3s.91-.1,1.27-.3c.36-.2,.65-.46,.87-.79,.22-.33,.39-.71,.5-1.13,.11-.42,.16-.85,.16-1.29s-.05-.87-.16-1.29-.27-.8-.5-1.13c-.22-.33-.51-.59-.87-.79s-.78-.3-1.27-.3Z" style="fill:#1d1d1b;"/><path d="M53.59,2.76h1.39v.98l.03,.03c.22-.37,.51-.66,.88-.87,.36-.21,.76-.32,1.2-.32,.73,0,1.3,.19,1.73,.57s.63,.95,.63,1.7v4.57h-1.47V5.23c-.02-.52-.13-.9-.33-1.14s-.53-.35-.97-.35c-.25,0-.47,.04-.67,.13-.2,.09-.37,.21-.5,.37-.14,.16-.25,.35-.32,.56-.08,.21-.12,.44-.12,.68v3.93h-1.47V2.76Z" style="fill:#1d1d1b;"/></g><g><path d="M65.12,.22V9.42h-.49V.22h.49Z" style="fill:#1d1d1b;"/><path d="M66.79,1.55V.22h.49V1.55h-.49Zm0,7.87V2.79h.49v6.62h-.49Z" style="fill:#1d1d1b;"/><path d="M71.37,9.42h-.61l-2.67-6.62h.57l2.4,6.05h.03l2.24-6.05h.54l-2.5,6.62Z" style="fill:#1d1d1b;"/><path d="M74.74,6.17v.08c0,.39,.05,.75,.16,1.11,.1,.35,.26,.66,.46,.93,.2,.27,.46,.48,.76,.63,.31,.15,.66,.23,1.07,.23,.66,0,1.19-.17,1.58-.52s.65-.83,.8-1.45h.49c-.15,.77-.46,1.37-.95,1.78-.49,.41-1.13,.62-1.93,.62-.49,0-.92-.09-1.28-.26-.37-.18-.67-.42-.92-.72-.24-.3-.43-.67-.55-1.08-.12-.42-.18-.87-.18-1.35s.06-.91,.19-1.33c.12-.42,.31-.8,.56-1.12s.56-.58,.93-.77c.37-.19,.81-.29,1.32-.29,.46,0,.87,.09,1.23,.26,.36,.17,.65,.41,.89,.7,.24,.3,.42,.64,.55,1.03,.12,.39,.19,.81,.19,1.25,0,.04,0,.09,0,.15,0,.06,0,.1,0,.14h-5.36Zm4.87-.43c-.02-.36-.08-.7-.18-1.02-.1-.32-.26-.61-.46-.85-.2-.24-.45-.44-.74-.59-.29-.15-.62-.22-.99-.22-.4,0-.75,.08-1.05,.23-.3,.15-.56,.35-.76,.59-.21,.24-.37,.53-.48,.86-.11,.33-.18,.66-.21,1h4.86Z" style="fill:#1d1d1b;"/></g><rect x="3.26" y=".04" width="3.26" height="3.26" style="fill:#3fa535;"/><rect x="3.26" y="6.56" width="3.26" height="3.26" style="fill:#7c1da6;"/><rect x="3.26" y="3.3" width="3.26" height="3.26" style="fill:#1d1d1b;"/><rect x="6.52" y="3.3" width="3.26" height="3.26" style="fill:#f08336;"/><rect y="3.3" width="3.26" height="3.26" style="fill:#cc4121;"/></g></svg>