<?xml version="1.0" encoding="UTF-8"?><svg id="Ebene_2" xmlns="http://www.w3.org/2000/svg" viewBox="0 0 64.86 20.81"><g id="Ebene_1-2"><g><path d="M63.87,11.17c-.92,.76-1.7,1.38-2.69,1.38-.77,0-1.73-.42-1.73-1.68,0-.37,.09-.74,.18-1.12l.52-.07c2.99-.42,4.72-1.92,4.72-3.37,0-.81-.57-1.25-1.51-1.25-2.6,0-5.51,3.1-5.51,5.73,0,1.16,.59,2.6,2.53,2.6s3.52-1.7,3.72-1.99l-.22-.22Zm-3.8-2.64c.68-1.64,1.94-3.06,2.93-3.06,.46,0,.65,.35,.65,.74,0,.15-.09,2.36-3.89,3.13l.31-.81Zm-10.42-2.78c1.36-.13,1.4,.16,1.7,1.82,.18,1.07,.42,4.06,.42,5.38,0,.31,0,.55,.17,.55,.28,0,.61-.37,1.82-1.68,.61-.65,3.36-3.93,3.36-5.62,0-.68-.44-1.16-1.05-1.16-.37,0-.66,.26-.66,.53,0,.99,.77,.79,.77,1.51,0,.92-1.47,3.12-2.53,4.2l-.57,.59c-.13-2.53-.24-4.04-.79-6.47-.09-.39-.11-.37-.29-.37-.09,0-1,.26-2.34,.46v.24Zm-.46-3.61c0-.41-.31-1.01-.92-1.01-.44,0-.87,.35-.87,.99s.42,.96,.88,.96c.61,0,.9-.57,.9-.94m-.77,8.94c-.76,1.07-1.29,1.44-1.51,1.44-.17,0-.3-.15-.3-.28,0-.22,.22-.96,.3-1.22l1.62-5.94-.05-.04c-.72,.13-2.25,.42-2.95,.46v.3c1.01,0,1.16,.09,1.16,.48,0,.52-1.46,5.09-1.46,5.95,0,.33,0,1.14,.87,1.14,1.03,0,1.84-1.01,2.56-2.1l-.24-.2Zm-4.83-.17c-.9,1.16-1.29,1.68-1.75,1.68-.28,0-.28-.26-.28-.37,0-.2,.15-.7,.18-.87L44.53,.68l-.09-.09c-.96,.22-1.92,.39-2.88,.5v.29c.48-.02,1.25-.02,1.25,.46,0,.39-2.67,10.01-2.67,10.4,0,.52,.07,1.14,.89,1.14,1.14,0,1.86-.89,2.8-2.31l-.24-.17Z" style="fill:#878787;"/><path d="M15.03,10.03c.71,.26,1.9,.52,2.78,.52s1.47-.17,1.47-.69c0-.69-.74-.87-1.66-1.11-1.45-.35-2.75-1.14-2.75-2.77,0-1.87,1.29-2.52,3.46-2.52,.86,0,2.16,.26,2.94,.52l-.36,1.9c-.97-.35-1.88-.52-2.42-.52-.85,0-1.19,.26-1.19,.6,0,.52,.55,.67,1.56,.93,1.45,.38,2.85,.95,2.85,2.78,0,1.94-1.64,2.77-3.89,2.77-.78,0-2.33-.17-3.11-.52l.33-1.9ZM10.38,1.38c0,.76,.62,1.38,1.38,1.38s1.38-.62,1.38-1.38-.62-1.38-1.38-1.38-1.38,.62-1.38,1.38m2.59,2.25h-2.42V12.28h2.42V3.63ZM3.98,10.55c.78,0,1.21-.17,1.73-.35V5.62c-.43-.17-.86-.26-1.56-.26-1.3,0-1.73,.78-1.73,2.68,0,1.56,.35,2.51,1.56,2.51m1.73-6.61V.17L8.13,0V12.28h-2.42v-.6h-.09c-.61,.6-1.31,.78-2.25,.78-2.51,0-3.37-2.07-3.37-4.32C0,5.53,1.05,3.46,3.8,3.46c.71,0,1.3,.17,1.85,.52l.05-.03Z" style="fill:#123274;"/><path d="M38.8,7.94c0-3.24-1.76-4.64-4.36-4.64-2.95,0-4.52,1.54-4.71,4.4h2.6c.13-1.76,.84-2.45,2.01-2.45,1.3,0,1.85,.74,1.85,2.69,0,2.22-.74,3.06-2.04,3.06-.87,0-1.4-.34-1.66-1.14-.22,.93-.64,1.71-1.28,2.26,.74,.57,1.71,.84,2.85,.84,3.15,0,4.73-1.76,4.73-5.01" style="fill:#3aaa35;"/><path d="M23.1,8.31c0,3.24,1.76,4.63,4.36,4.63,2.95,0,4.52-1.54,4.71-4.39h-2.6c-.13,1.76-.84,2.45-2.01,2.45-1.3,0-1.85-.74-1.85-2.69,0-2.22,.74-3.06,2.04-3.06,.87,0,1.4,.34,1.66,1.15,.22-.93,.64-1.71,1.28-2.26-.74-.57-1.71-.84-2.85-.84-3.15,0-4.73,1.76-4.73,5.01" style="fill:#123274;"/></g><rect x="23.1" y="3.17" width="2.41" height="13.01" style="fill:#123274;"/><g><path d="M1.36,19.63c.15,.09,.37,.17,.6,.17,.34,0,.54-.18,.54-.44,0-.24-.14-.38-.49-.52-.42-.15-.68-.37-.68-.73,0-.4,.33-.7,.84-.7,.27,0,.46,.06,.57,.13l-.09,.27c-.08-.05-.26-.12-.49-.12-.35,0-.49,.21-.49,.39,0,.24,.16,.36,.52,.5,.44,.17,.66,.38,.66,.76s-.3,.75-.91,.75c-.25,0-.52-.07-.66-.17l.08-.28Z" style="fill:#123274;"/><path d="M5,19.09c0,.69-.48,.99-.93,.99-.5,0-.89-.37-.89-.96,0-.62,.41-.99,.92-.99s.9,.39,.9,.96Zm-1.48,.02c0,.41,.23,.71,.57,.71s.56-.3,.56-.72c0-.32-.16-.71-.56-.71s-.57,.37-.57,.72Z" style="fill:#123274;"/><path d="M5.47,20.04v-1.6h-.26v-.26h.26v-.09c0-.26,.06-.5,.22-.65,.13-.12,.3-.17,.45-.17,.12,0,.22,.03,.29,.05l-.05,.26s-.12-.04-.22-.04c-.29,0-.36,.25-.36,.54v.1h.45v.26h-.45v1.6h-.33Z" style="fill:#123274;"/><path d="M7.01,17.64v.53h.48v.26h-.48v1c0,.23,.07,.36,.25,.36,.09,0,.15-.01,.2-.02l.02,.25c-.06,.03-.17,.05-.3,.05-.16,0-.28-.05-.37-.14-.1-.1-.13-.27-.13-.48v-1.02h-.29v-.26h.29v-.45l.33-.09Z" style="fill:#123274;"/><path d="M8.04,18.18l.25,.95c.05,.21,.1,.4,.14,.59h.01c.04-.19,.1-.39,.17-.59l.3-.95h.28l.29,.93c.07,.22,.12,.42,.17,.61h.01c.03-.19,.08-.38,.14-.6l.27-.93h.33l-.6,1.86h-.31l-.28-.89c-.07-.21-.12-.39-.17-.61h0c-.05,.22-.1,.42-.17,.62l-.3,.88h-.31l-.56-1.86h.35Z" style="fill:#123274;"/><path d="M11.75,20.04l-.03-.23h-.01c-.1,.15-.3,.28-.57,.28-.38,0-.57-.26-.57-.53,0-.45,.4-.7,1.12-.69v-.04c0-.15-.04-.43-.42-.43-.17,0-.35,.05-.48,.14l-.08-.22c.15-.1,.38-.17,.61-.17,.57,0,.71,.39,.71,.76v.7c0,.16,0,.32,.03,.45h-.31Zm-.05-.95c-.37,0-.79,.06-.79,.42,0,.22,.15,.32,.32,.32,.24,0,.4-.15,.45-.31,.01-.03,.02-.07,.02-.11v-.32Z" style="fill:#123274;"/><path d="M12.58,18.76c0-.22,0-.41-.02-.58h.3v.37h.03c.08-.25,.29-.41,.52-.41,.04,0,.07,0,.1,.01v.32s-.07-.01-.12-.01c-.24,0-.41,.18-.45,.43,0,.05-.02,.1-.02,.16v.99h-.33v-1.28Z" style="fill:#123274;"/><path d="M13.99,19.17c0,.46,.3,.65,.64,.65,.24,0,.39-.04,.52-.1l.06,.24c-.12,.05-.32,.12-.62,.12-.57,0-.92-.38-.92-.94s.33-1,.87-1c.61,0,.77,.53,.77,.88,0,.07,0,.12-.01,.16h-1.31Zm.99-.24c0-.21-.09-.55-.47-.55-.34,0-.49,.32-.52,.55h.99Z" style="fill:#123274;"/></g><g><path d="M16.84,20.04v-1.69h-.35v-.23h.35v-.37c0-.35,.2-.48,.48-.48,.13,0,.25,.02,.38,.06l-.04,.21c-.15-.04-.25-.04-.31-.04-.1,0-.25,.05-.25,.25v.37h.54l-.04,.23h-.5v1.69h-.27Z" style="fill:#123274;"/><path d="M19.38,19.71v-1.6h.27v1.92h-.27v-.15h-.02c-.21,.13-.4,.19-.62,.19-.42,0-.63-.23-.63-.66v-1.3h.27v1.18c0,.31,.1,.55,.42,.55,.27,0,.45-.08,.58-.13Zm-.86-2.3c.11,0,.2,.08,.2,.2s-.08,.2-.2,.2-.2-.08-.2-.2,.08-.2,.2-.2Zm.73,0c.11,0,.2,.08,.2,.2s-.08,.2-.2,.2-.2-.08-.2-.2,.08-.2,.2-.2Z" style="fill:#123274;"/><path d="M21.32,18.34c-.27,0-.51,.04-.63,.1v1.6h-.27v-1.92h.27v.15h.02c.21-.13,.4-.19,.62-.19v.27Z" style="fill:#123274;"/><path d="M24,18.18v-.84l.27-.04v2.73h-.27v-.13h-.02c-.21,.13-.37,.17-.58,.17-.56,0-.75-.46-.75-.96,0-.58,.23-1.04,.84-1.04,.16,0,.35,.04,.49,.12h.01Zm-.5,1.65c.25,0,.35-.04,.5-.08v-1.4c-.17-.04-.31-.06-.46-.06-.48,0-.6,.37-.6,.79,0,.35,.06,.75,.56,.75Z" style="fill:#123274;"/><path d="M26.36,19.96c-.17,.08-.37,.12-.62,.12-.58,0-.88-.23-.88-1,0-.65,.29-1,.83-1s.77,.31,.77,.83c0,.04,0,.12-.02,.19h-1.31c0,.6,.23,.75,.62,.75,.19,0,.4-.04,.56-.1l.06,.21Zm-1.22-1.1h1.05c-.02-.36-.17-.56-.5-.56-.29,0-.5,.15-.55,.56Z" style="fill:#123274;"/><path d="M27.35,18.44v1.6h-.27v-1.92h.27v.15h.02c.21-.13,.41-.19,.62-.19,.42,0,.63,.23,.63,.66v1.3h-.27v-1.18c0-.31-.09-.55-.42-.55-.27,0-.46,.08-.58,.13Z" style="fill:#123274;"/><path d="M30.54,18.78l1.18-1.32h.35l-1.04,1.15,1.11,1.42h-.37l-.93-1.22-.3,.34v.88h-.28v-2.58h.28v1.32Z" style="fill:#123274;"/><path d="M33.56,18.34c-.27,0-.51,.04-.63,.1v1.6h-.27v-1.92h.27v.15h.02c.21-.13,.4-.19,.62-.19v.27Z" style="fill:#123274;"/><path d="M34.58,19.02c.15,0,.38,.02,.57,.06h.01v-.35c0-.27-.15-.42-.46-.42-.23,0-.37,.04-.56,.1l-.06-.21c.19-.08,.41-.12,.67-.12,.46,0,.67,.21,.67,.62v1.13h.25v.17c-.13,.06-.25,.08-.33,.08-.12,0-.18-.07-.19-.17h-.02c-.17,.12-.4,.17-.62,.17-.33,0-.59-.13-.59-.53s.23-.53,.65-.53Zm.58,.23h-.62c-.31,0-.35,.16-.35,.29,0,.23,.1,.31,.31,.31,.25,0,.49-.04,.65-.08v-.52Z" style="fill:#123274;"/><path d="M36.47,18.44v1.6h-.27v-1.92h.27v.15h.02c.21-.13,.41-.19,.62-.19,.42,0,.63,.23,.63,.66v1.3h-.27v-1.18c0-.31-.09-.55-.42-.55-.27,0-.46,.08-.58,.13Z" style="fill:#123274;"/><path d="M38.72,18.9h.41l.63-.79h.33l-.71,.88,.83,1.04h-.35l-.71-.88h-.42v.88h-.27v-2.69l.27-.04v1.6Z" style="fill:#123274;"/><path d="M41.97,19.96c-.17,.08-.37,.12-.62,.12-.58,0-.88-.23-.88-1,0-.65,.29-1,.83-1s.77,.31,.77,.83c0,.04,0,.12-.02,.19h-1.31c0,.6,.23,.75,.62,.75,.19,0,.4-.04,.56-.1l.06,.21Zm-1.22-1.1h1.05c-.02-.36-.17-.56-.5-.56-.29,0-.5,.15-.55,.56Z" style="fill:#123274;"/><path d="M42.96,18.44v1.6h-.27v-1.92h.27v.15h.02c.21-.13,.41-.19,.62-.19,.42,0,.63,.23,.63,.66v1.3h-.27v-1.18c0-.31-.09-.55-.42-.55-.27,0-.46,.08-.58,.13Z" style="fill:#123274;"/><path d="M45.31,17.5v.62h.54l-.04,.23h-.5v1.25c0,.2,.15,.25,.25,.25,.06,0,.12,0,.27-.03l.04,.22c-.1,.02-.21,.04-.35,.04-.28,0-.48-.13-.48-.48v-1.25h-.35v-.23h.35v-.58l.27-.04Z" style="fill:#123274;"/><path d="M47.35,18.34c-.27,0-.51,.04-.63,.1v1.6h-.27v-1.92h.27v.15h.02c.21-.13,.4-.19,.62-.19v.27Z" style="fill:#123274;"/><path d="M48.37,19.02c.15,0,.38,.02,.57,.06h.01v-.35c0-.27-.15-.42-.46-.42-.23,0-.37,.04-.56,.1l-.06-.21c.19-.08,.41-.12,.67-.12,.46,0,.67,.21,.67,.62v1.13h.25v.17c-.13,.06-.25,.08-.33,.08-.12,0-.18-.07-.19-.17h-.02c-.17,.12-.4,.17-.62,.17-.33,0-.59-.13-.59-.53s.23-.53,.65-.53Zm.58,.23h-.62c-.31,0-.35,.16-.35,.29,0,.23,.1,.31,.31,.31,.25,0,.49-.04,.65-.08v-.52Z" style="fill:#123274;"/><path d="M50.25,18.44v1.6h-.27v-1.92h.27v.15h.02c.21-.13,.41-.19,.62-.19,.42,0,.63,.23,.63,.66v1.3h-.27v-1.18c0-.31-.09-.55-.42-.55-.27,0-.46,.08-.58,.13Z" style="fill:#123274;"/><path d="M52.18,19.75c.12,.05,.37,.1,.52,.1,.27,0,.48-.1,.48-.33s-.23-.3-.5-.37c-.3-.07-.56-.19-.56-.54,0-.38,.29-.54,.73-.54,.17,0,.37,.05,.5,.1l-.06,.23c-.15-.06-.33-.1-.48-.1-.27,0-.42,.1-.42,.29,0,.23,.17,.26,.48,.35,.3,.08,.58,.17,.58,.56s-.34,.58-.77,.58c-.17,0-.4-.05-.56-.1l.06-.23Z" style="fill:#123274;"/><path d="M54.34,19.97v.84h-.27v-2.69h.27v.13h.02c.21-.13,.37-.17,.58-.17,.56,0,.75,.46,.75,.96,0,.58-.23,1.04-.84,1.04-.16,0-.35-.04-.49-.12h-.01Zm.5-1.65c-.25,0-.35,.04-.5,.08v1.42c.17,.04,.31,.06,.46,.06,.48,0,.6-.38,.6-.81,0-.35-.06-.75-.56-.75Z" style="fill:#123274;"/><path d="M57.03,18.08c.54,0,.81,.29,.81,.96s-.23,1.04-.88,1.04c-.54,0-.81-.29-.81-.96s.23-1.04,.88-1.04Zm-.06,1.79c.46,0,.6-.33,.6-.83,0-.44-.1-.75-.56-.75s-.6,.33-.6,.83c0,.44,.1,.75,.56,.75Z" style="fill:#123274;"/><path d="M59.38,18.34c-.27,0-.51,.04-.63,.1v1.6h-.27v-1.92h.27v.15h.02c.21-.13,.4-.19,.62-.19v.27Z" style="fill:#123274;"/><path d="M60.29,17.5v.62h.54l-.04,.23h-.5v1.25c0,.2,.15,.25,.25,.25,.06,0,.12,0,.27-.03l.04,.22c-.1,.02-.21,.04-.35,.04-.28,0-.48-.13-.48-.48v-1.25h-.35v-.23h.35v-.58l.27-.04Z" style="fill:#123274;"/></g></g></svg>