<?xml version="1.0" encoding="UTF-8"?><svg id="Ebene_2" xmlns="http://www.w3.org/2000/svg" xmlns:xlink="http://www.w3.org/1999/xlink" viewBox="0 0 402.52 340.16"><defs><clipPath id="clippath"><rect x=".25" y=".34" width="402.02" height="339.48" style="fill:none;"/></clipPath><clipPath id="clippath-1"><rect x=".25" y=".34" width="402.02" height="339.48" style="fill:none;"/></clipPath><clipPath id="clippath-2"><rect x=".25" y=".34" width="402.02" height="339.48" style="fill:none;"/></clipPath><clipPath id="clippath-3"><rect x=".25" y=".34" width="402.02" height="339.48" style="fill:none;"/></clipPath><clipPath id="clippath-4"><rect x=".25" y=".34" width="402.02" height="339.48" style="fill:none;"/></clipPath><clipPath id="clippath-5"><rect width="402.52" height="340.16" style="fill:none;"/></clipPath><clipPath id="clippath-6"><rect width="402.52" height="340.16" style="fill:none;"/></clipPath></defs><g id="Ebene_1-2"><rect x=".25" y=".34" width="402.02" height="339.48" style="fill:#ec640f;"/><polygon points="350 23.25 347.85 33.9 358.68 33.9 360.75 23.25 350 23.25" style="fill:#fff;"/><g style="clip-path:url(#clippath);"><path d="m46.36,33.19h10.93c3.04,0,4.77.39,5.46,1.24.44.53.53,1.37.28,2.57l-.52,2.46c-.67,3.06-1.98,4.15-7.95,4.15h-10.28l2.07-10.41Zm12.29-10.14h-21.42l-9.27,47.61h11.08l3.31-16.92h11.06l4.21,16.92h11.16l-4.54-18.44c4.97-1.82,7.83-5.24,8.97-10.74l.91-4.41h0c.77-3.86.18-7.02-1.76-9.39-2.52-3.07-7.13-4.63-13.69-4.63" style="fill:#fff;"/></g><polygon points="75.6 70.66 111.31 70.66 113.25 60.52 88.62 60.52 90.18 52.51 112.15 52.51 114.16 42.37 92.19 42.37 94 33.19 118.58 33.19 120.51 23.05 84.87 23.05 75.6 70.66" style="fill:#fff;"/><polygon points="123.19 33.19 138.03 33.19 130.7 70.66 141.78 70.66 149.1 33.19 163.82 33.19 165.76 23.05 125.12 23.05 123.19 33.19" style="fill:#fff;"/><polygon points="209.58 23.05 168.94 23.05 167.01 33.19 181.85 33.19 174.52 70.66 185.6 70.66 192.92 33.19 207.64 33.19 209.58 23.05" style="fill:#fff;"/><g style="clip-path:url(#clippath-1);"><path d="m243.85,35.05c-4.01,0-7.95,1.92-10.96,5.3-2.22-3.43-5.71-5.3-9.97-5.3-2.98,0-5.9,1.02-8.5,2.96l-.89-1.98h-7.05l-6.74,34.64h10.75l3.94-20.36c1.08-3.67,3.15-5.7,5.82-5.7,1.3,0,2.38.47,3.11,1.35,1.09,1.31,1.43,3.5.94,6.17l-3.49,18.54h10.75l3.18-16.7c.13-.8.26-1.6.32-2.27.77-4.44,3.09-7.1,6.19-7.1,1.35,0,2.45.47,3.18,1.37,1.08,1.31,1.39,3.49.87,6.14l-3.56,18.55h10.75l3.24-16.68c1.16-6,.2-11.26-2.72-14.8-2.23-2.71-5.41-4.14-9.17-4.14" style="fill:#fff;"/><path d="m271.88,55.61l.97-4.66c.95-4.44,3.05-6.09,7.75-6.09,2.61,0,4.39.55,5.29,1.65.8.98.99,2.45.58,4.5l-.91,4.6c-.9,4.58-2.86,6.21-7.49,6.21-2.7,0-4.56-.61-5.54-1.8-.82-1-1.04-2.49-.65-4.4m8.98-20.57c-10.3,0-16.5,4.8-18.44,14.27l-1.17,5.71h0c-.89,4.39-.09,8.27,2.32,11.21,2.89,3.53,7.79,5.4,14.18,5.4,10.24,0,16.38-4.8,18.24-14.28l1.1-5.64c.88-4.53.06-8.48-2.37-11.43-2.82-3.43-7.62-5.23-13.86-5.23" style="fill:#fff;"/><path d="m314.13,51c1.23-4.36,3.48-6.14,7.76-6.14,2.28,0,3.99.62,4.96,1.81.94,1.15,1.21,2.87.78,4.98l-.71,3.37c-1.01,4.71-3.39,6.8-7.75,6.8-2.3,0-3.98-.54-5-1.61-.82-.87-1.19-2.08-1.13-3.51l1.08-5.7Zm9.84-15.96c-2.67,0-4.98.38-6.99,1.16l3.32-17.11h-10.75l-10.05,51.56h7.61l1.92-2.36c2.3,2.22,5.74,3.34,10.26,3.34,9.58,0,16.16-5.42,18.05-14.86l.91-4.54c.95-4.71.05-9.04-2.54-12.21-2.63-3.21-6.8-4.99-11.75-4.99" style="fill:#fff;"/></g><polygon points="340.79 70.66 351.54 70.66 358.28 36.02 347.53 36.02 340.79 70.66" style="fill:#fff;"/><polygon points="369.18 19.1 359.13 70.66 369.89 70.66 379.93 19.1 369.18 19.1" style="fill:#fff;"/><polygon points="22.59 112.94 29.38 112.94 34.98 84.12 28.2 84.12 22.59 112.94" style="fill:#263474;"/><polygon points="56.16 101.49 48.55 84.12 42.23 84.12 36.62 112.94 43.25 112.94 46.6 95.71 54.25 112.94 60.57 112.94 66.18 84.12 59.55 84.12 56.16 101.49" style="fill:#263474;"/><polygon points="71.63 84.12 70.44 90.34 79.39 90.34 74.97 112.94 81.76 112.94 86.18 90.34 95.06 90.34 96.24 84.12 71.63 84.12" style="fill:#263474;"/><polygon points="96.08 112.94 117.73 112.94 118.91 106.72 104.06 106.72 104.98 101.99 118.23 101.99 119.47 95.77 106.21 95.77 107.29 90.34 122.11 90.34 123.29 84.12 101.69 84.12 96.08 112.94" style="fill:#263474;"/><g style="clip-path:url(#clippath-2);"><path d="m135.2,90.34h6.54c1.82,0,2.85.23,3.25.73.26.31.31.8.16,1.51l-.31,1.48c-.4,1.81-1.18,2.46-4.74,2.46h-6.13l1.23-6.17Zm7.37-6.22h-12.97l-5.61,28.82h6.78l2-10.2h6.55l2.58,10.2h6.84l-2.74-11.14c2.99-1.1,4.71-3.18,5.4-6.5l.54-2.66h0c.47-2.35.1-4.26-1.08-5.71-1.53-1.87-4.32-2.81-8.3-2.81" style="fill:#263474;"/></g><polygon points="177.5 84.12 174.11 101.49 166.5 84.12 160.17 84.12 154.56 112.94 161.2 112.94 164.55 95.71 172.19 112.94 178.52 112.94 184.13 84.12 177.5 84.12" style="fill:#263474;"/><path d="m203.59,101.48h-6.78l5.4-10.77,1.37,10.77Zm-5.07-17.36l-14.67,28.82h6.97l2.82-5.28h10.8l.7,5.28h6.38l-3.45-28.82h-9.54Z" style="fill:#263474;"/><polygon points="217.91 84.12 216.73 90.34 225.68 90.34 221.26 112.94 228.05 112.94 232.46 90.34 241.34 90.34 242.53 84.12 217.91 84.12" style="fill:#263474;"/><polygon points="242.37 112.94 249.16 112.94 254.76 84.12 247.98 84.12 242.37 112.94" style="fill:#263474;"/><g style="clip-path:url(#clippath-3);"><path d="m273.72,89.75c2.62,0,4.48.58,5.39,1.69.62.75.81,1.76.56,3.02l-1.56,8.01c-.57,2.9-2.02,4.83-7.24,4.83-2.66,0-4.65-.64-5.61-1.8-.53-.65-.71-1.43-.54-2.31l1.68-8.56c.68-3.46,2.8-4.87,7.32-4.87m.71-6.22c-8.03,0-13.18,3.51-14.49,9.86l-1.8,8.84c-.54,2.62.05,5.14,1.66,7.13,2.19,2.69,5.96,4.17,10.61,4.17,8.36,0,12.85-3.01,14.14-9.47l1.88-9.23c.53-2.64-.08-5.19-1.72-7.18-2.14-2.61-5.88-4.11-10.27-4.11" style="fill:#263474;"/></g><polygon points="312.68 84.12 309.29 101.49 301.68 84.12 295.36 84.12 289.75 112.94 296.38 112.94 299.73 95.71 307.38 112.94 313.7 112.94 319.31 84.12 312.68 84.12" style="fill:#263474;"/><path d="m338.78,101.48h-6.78l5.4-10.77,1.37,10.77Zm-5.07-17.36l-14.67,28.82h6.97l2.82-5.28h10.8l.7,5.28h6.38l-3.45-28.82h-9.54Z" style="fill:#263474;"/><polygon points="360 106.72 364.42 84.12 357.63 84.12 352.02 112.94 374.02 112.94 375.21 106.72 360 106.72" style="fill:#263474;"/><rect x=".25" y="299.62" width="402.02" height="40.2" style="fill:#263474;"/><path d="m40,314.31l-4.99,11.23h-3.35l-.82-5.49-2.91,5.49h-3.42l-.6-11.23h3.09l.02,8.32,3.62-8.32h2.52l.35,8.43,3.29-8.43h3.2Z" style="fill:#fff;"/><path d="m56.72,314.31l-4.99,11.23h-3.35l-.82-5.49-2.91,5.49h-3.42l-.6-11.23h3.09l.02,8.32,3.62-8.32h2.52l.35,8.43,3.29-8.43h3.2Z" style="fill:#fff;"/><path d="m73.44,314.31l-4.99,11.23h-3.35l-.82-5.49-2.91,5.49h-3.42l-.6-11.23h3.09l.02,8.32,3.62-8.32h2.52l.35,8.43,3.29-8.43h3.2Z" style="fill:#fff;"/><path d="m72.58,322.45h3.11l-.6,3.09h-3.11l.6-3.09Z" style="fill:#fff;"/><path d="m87.18,314.15l-.57,2.78c-.4-.13-.66-.18-.99-.18-1.28,0-2.65.49-3.18,2.16l-1.28,6.62h-3.09l2.18-11.23h1.99l.42.95c1.08-.84,2.41-1.19,3.66-1.19.35,0,.66.04.86.09Z" style="fill:#fff;"/><path d="m98.94,318.94l-.33,1.88h-7.88c-.22,1.46.44,2.45,2.05,2.45s2.18-.6,2.58-1.32h2.91c-.46,2.03-2.34,3.93-5.52,3.93-3.86,0-5.63-2.49-5.05-5.45l.31-1.61c.62-3.16,2.69-4.83,6-4.83,3.68,0,5.34,2.63,4.92,4.96Zm-3.07-.24c.04-1.39-.66-2.18-2.1-2.18s-2.21.77-2.63,2.18h4.72Z" style="fill:#fff;"/><path d="m104.7,320.18c-.35,1.76.26,2.58,1.59,2.58h1.15l-.55,2.78h-1.3c-3,0-4.74-1.74-4.13-4.85l.71-3.6h-1.5l.53-2.78h1.52l.64-3.18h3.09l-.62,3.18h2.87l-.53,2.78h-2.87l-.6,3.09Z" style="fill:#fff;"/><path d="m113.54,320.18c-.35,1.76.26,2.58,1.59,2.58h1.15l-.55,2.78h-1.3c-3,0-4.74-1.74-4.13-4.85l.71-3.6h-1.5l.53-2.78h1.52l.64-3.18h3.09l-.62,3.18h2.87l-.53,2.78h-2.87l-.6,3.09Z" style="fill:#fff;"/><path d="m136.33,320.09l-1.06,5.45h-3.09l1.15-5.98c.35-1.81-.38-2.89-1.65-2.89-1.19,0-2.1.99-2.38,2.65-.02.24-.07.51-.11.77l-1.04,5.45h-3.09l1.13-5.98c.33-1.81-.4-2.89-1.65-2.89-1.06,0-1.85.79-2.25,2.14l-1.3,6.73h-3.09l2.18-11.23h1.99l.38.84c.86-.73,1.9-1.17,3-1.17,1.52,0,2.69.75,3.35,2.01.97-1.24,2.32-2.01,3.77-2.01,2.85,0,4.46,2.58,3.77,6.11Z" style="fill:#fff;"/><path d="m138.65,320.55l.4-1.94c.64-3.13,2.67-4.63,6-4.63,4.04,0,5.85,2.27,5.25,5.34l-.38,1.92c-.62,3.13-2.6,4.63-5.94,4.63-4.04,0-5.96-2.27-5.34-5.32Zm8.27.2l.31-1.57c.33-1.66-.42-2.43-2.27-2.43-1.7,0-2.56.64-2.91,2.29l-.33,1.59c-.33,1.63.53,2.45,2.38,2.45,1.72,0,2.49-.66,2.82-2.34Z" style="fill:#fff;"/><path d="m164.2,319.49l-.31,1.54c-.66,3.31-2.96,4.83-5.87,4.83-1.59,0-2.78-.42-3.51-1.28l-.77.95h-2.12l3.31-16.99h3.09l-1.17,6.02c.79-.42,1.7-.6,2.76-.6,3.27,0,5.23,2.34,4.59,5.52Zm-5.3-2.74c-1.61,0-2.47.73-2.91,2.29l-.38,1.96c-.07,1.26.68,2.07,2.36,2.07s2.56-.88,2.91-2.54l.24-1.15c.33-1.63-.46-2.65-2.23-2.65Z" style="fill:#fff;"/><path d="m167.75,314.31h3.09l-2.18,11.23h-3.09l2.18-11.23Zm.84-4.35h3.09l-.6,3.07h-3.11l.62-3.07Z" style="fill:#fff;"/><path d="m178.09,308.55l-3.31,16.99h-3.09l3.31-16.99h3.09Z" style="fill:#fff;"/><path d="m178.82,318.12h5.96l-.53,2.67h-5.94l.51-2.67Z" style="fill:#fff;"/><path d="m188.11,314.31h3.09l-2.18,11.23h-3.09l2.18-11.23Zm.84-4.35h3.09l-.6,3.07h-3.11l.62-3.07Z" style="fill:#fff;"/><path d="m204.28,320.07l-1.06,5.47h-3.11l1.17-6c.33-1.79-.53-2.87-2.14-2.87-1.26,0-2.32.86-2.74,2.32l-1.28,6.55h-3.09l2.18-11.23h1.99l.42.95c.99-.79,2.16-1.28,3.42-1.28,3.16,0,4.92,2.58,4.24,6.09Z" style="fill:#fff;"/><path d="m210.57,320.18c-.35,1.76.26,2.58,1.59,2.58h1.15l-.55,2.78h-1.3c-3,0-4.74-1.74-4.13-4.85l.71-3.6h-1.5l.53-2.78h1.52l.64-3.18h3.09l-.62,3.18h2.87l-.53,2.78h-2.87l-.6,3.09Z" style="fill:#fff;"/><path d="m226.72,318.94l-.33,1.88h-7.88c-.22,1.46.44,2.45,2.05,2.45s2.18-.6,2.58-1.32h2.91c-.46,2.03-2.34,3.93-5.52,3.93-3.86,0-5.63-2.49-5.05-5.45l.31-1.61c.62-3.16,2.69-4.83,6-4.83,3.68,0,5.34,2.63,4.92,4.96Zm-3.07-.24c.04-1.39-.66-2.18-2.1-2.18s-2.21.77-2.62,2.18h4.72Z" style="fill:#fff;"/><path d="m237.09,314.15l-.57,2.78c-.4-.13-.66-.18-.99-.18-1.28,0-2.65.49-3.18,2.16l-1.28,6.62h-3.09l2.18-11.23h1.99l.42.95c1.08-.84,2.41-1.19,3.66-1.19.35,0,.66.04.86.09Z" style="fill:#fff;"/><path d="m249.51,320.07l-1.06,5.47h-3.11l1.17-6c.33-1.79-.53-2.87-2.14-2.87-1.26,0-2.32.86-2.74,2.32l-1.28,6.55h-3.09l2.18-11.23h1.99l.42.95c.99-.79,2.16-1.28,3.42-1.28,3.16,0,4.92,2.58,4.24,6.09Z" style="fill:#fff;"/><path d="m264.42,314.31l-2.18,11.23h-1.99l-.44-.93c-.82.86-1.83,1.26-3.33,1.26-3.24,0-5.27-1.9-4.59-5.54l.29-1.52c.6-3.11,2.67-4.83,5.69-4.83,1.52,0,2.82.44,3.64,1.35l.82-1.01h2.1Zm-4.37,6.66l.35-1.85c.18-1.5-.62-2.36-2.29-2.36s-2.6.86-2.93,2.54l-.22,1.15c-.31,1.63.44,2.65,2.27,2.65,1.54,0,2.43-.73,2.82-2.12Z" style="fill:#fff;"/><path d="m269.74,320.18c-.35,1.76.26,2.58,1.59,2.58h1.15l-.55,2.78h-1.3c-3,0-4.74-1.74-4.13-4.85l.71-3.6h-1.5l.53-2.78h1.52l.64-3.18h3.09l-.62,3.18h2.87l-.53,2.78h-2.87l-.6,3.09Z" style="fill:#fff;"/><path d="m276.29,314.31h3.09l-2.18,11.23h-3.09l2.18-11.23Zm.84-4.35h3.09l-.6,3.07h-3.11l.62-3.07Z" style="fill:#fff;"/><path d="m280.74,320.55l.4-1.94c.64-3.13,2.67-4.63,6-4.63,4.04,0,5.85,2.27,5.25,5.34l-.38,1.92c-.62,3.13-2.6,4.63-5.93,4.63-4.04,0-5.96-2.27-5.34-5.32Zm8.27.2l.31-1.57c.33-1.66-.42-2.43-2.27-2.43-1.7,0-2.56.64-2.91,2.29l-.33,1.59c-.33,1.63.53,2.45,2.38,2.45,1.72,0,2.49-.66,2.82-2.34Z" style="fill:#fff;"/><path d="m305.96,320.07l-1.06,5.47h-3.11l1.17-6c.33-1.79-.53-2.87-2.14-2.87-1.26,0-2.32.86-2.74,2.32l-1.28,6.55h-3.09l2.18-11.23h1.99l.42.95c.99-.79,2.16-1.28,3.42-1.28,3.16,0,4.92,2.58,4.24,6.09Z" style="fill:#fff;"/><path d="m320.87,314.31l-2.18,11.23h-1.99l-.44-.93c-.82.86-1.83,1.26-3.33,1.26-3.24,0-5.27-1.9-4.59-5.54l.29-1.52c.6-3.11,2.67-4.83,5.69-4.83,1.52,0,2.82.44,3.64,1.35l.82-1.01h2.1Zm-4.37,6.66l.35-1.85c.18-1.5-.62-2.36-2.29-2.36s-2.6.86-2.93,2.54l-.22,1.15c-.31,1.63.44,2.65,2.27,2.65,1.54,0,2.43-.73,2.82-2.12Z" style="fill:#fff;"/><path d="m328.09,308.55l-3.31,16.99h-3.09l3.31-16.99h3.09Z" style="fill:#fff;"/><path d="m328.39,322.45h3.11l-.6,3.09h-3.11l.6-3.09Z" style="fill:#fff;"/><path d="m334.26,320.35l.29-1.54c.57-3.11,2.67-4.83,5.87-4.83,4.15,0,5.41,2.91,4.9,4.85l-.02.09h-3.09l.04-.2c.29-1.26-.51-1.96-1.99-1.96s-2.4.88-2.71,2.51l-.22,1.17c-.33,1.7.51,2.65,2.05,2.65,1.32,0,2.14-.66,2.38-1.85l.07-.31h3.09l-.16.77c-.53,2.67-2.32,4.17-5.36,4.17-3.88,0-5.71-2.41-5.14-5.52Z" style="fill:#fff;"/><path d="m347.08,320.55l.4-1.94c.64-3.13,2.67-4.63,6-4.63,4.04,0,5.85,2.27,5.25,5.34l-.38,1.92c-.62,3.13-2.6,4.63-5.93,4.63-4.04,0-5.96-2.27-5.34-5.32Zm8.27.2l.31-1.57c.33-1.66-.42-2.43-2.27-2.43-1.7,0-2.56.64-2.91,2.29l-.33,1.59c-.33,1.63.53,2.45,2.38,2.45,1.72,0,2.49-.66,2.82-2.34Z" style="fill:#fff;"/><path d="m378.5,320.09l-1.06,5.45h-3.09l1.15-5.98c.35-1.81-.38-2.89-1.65-2.89-1.19,0-2.1.99-2.38,2.65-.02.24-.07.51-.11.77l-1.04,5.45h-3.09l1.12-5.98c.33-1.81-.4-2.89-1.66-2.89-1.06,0-1.85.79-2.25,2.14l-1.3,6.73h-3.09l2.18-11.23h1.99l.38.84c.86-.73,1.9-1.17,3-1.17,1.52,0,2.69.75,3.35,2.01.97-1.24,2.32-2.01,3.77-2.01,2.85,0,4.46,2.58,3.77,6.11Z" style="fill:#fff;"/><g style="clip-path:url(#clippath-4);"><path d="m277.2,279.71v20.8h125.07v-32.06h-113.81c-6.22,0-11.26,5.04-11.26,11.26" style="fill:#263474;"/><path d="m329.35,250.57v-47.91c0-10.46,6.61-19.91,16.44-23.52l-2.55-6.94c-12.73,4.67-21.28,16.91-21.28,30.45v55.3h72.27v-7.39h-64.89Z" style="fill:#263474;"/><path d="m327.27,139.14l-3.24-6.64c-26.94,13.15-43.68,39.94-43.68,69.91h7.39c0-27.12,15.15-51.37,39.53-63.27" style="fill:#263474;"/><path d="m402.27,164.45c-10.77-12.34-26.58-20.15-44.2-20.15-32.36,0-58.69,26.33-58.69,58.7v54.96h11.08v-54.96c0-26.26,21.36-47.62,47.61-47.62,20.02,0,37.17,12.43,44.2,29.97v-20.9Z" style="fill:#263474;"/></g><g style="clip-path:url(#clippath-5);"><path d="m276.24,237.46h-5.27l5.27-8.26v8.26Zm7.38,4.39v-4.39h-2.46v-13.99h-6.33l-9.14,14.52v3.87h10.55v5.17h4.92v-5.17h2.46Zm-28.37-18.74c4.92,0,8.68,3.16,8.68,11.78s-3.41,12.48-9.39,12.48c-4.92,0-8.54-3.16-8.54-11.78s3.27-12.48,9.25-12.48m-.53,20.39c3.16,0,4.32-2.29,4.32-8.61,0-5.8-.81-7.91-3.97-7.91s-4.15,2.28-4.15,8.61c0,5.8.63,7.91,3.8,7.91m-19.16-20.39c4.92,0,8.68,3.16,8.68,11.78s-3.41,12.48-9.39,12.48c-4.92,0-8.54-3.16-8.54-11.78s3.27-12.48,9.25-12.48m-.53,20.39c3.16,0,4.32-2.29,4.32-8.61,0-5.8-.81-7.91-3.97-7.91s-4.15,2.28-4.15,8.61c0,5.8.63,7.91,3.8,7.91m-21.72-.7h-6.15v4.22h16.87v-4.22h-5.8v-19.51h-3.62c-1.16.84-4.57,2.14-6.4,2.53l.35,3.44c.88,0,3.34-.18,4.75-.88v14.41Zm-28.83-19.33h8.4c8.05,0,11.46,4.89,11.46,11.78,0,7.8-4.47,11.78-12.16,11.78h-7.7v-23.55Zm5.03,19.69h2.35c4.39,0,7.38-1.48,7.38-7.91s-2.64-7.91-7.21-7.91h-2.53v15.82Zm-23.27,1.51c0,1.48,1.23,2.71,2.71,2.71s2.71-1.23,2.71-2.71-1.23-2.71-2.71-2.71-2.71,1.23-2.71,2.71m-2.29-15.5c-2.53-.35-4.39.63-5.66,1.51h-.14v-1.23h-4.92v17.58h4.92v-13.18c1.05-.35,2.64-.88,5.8-.7v-3.97Zm-30.16-5.69h-5.1v23.55h5.03v-14.41l9.39,14.41h5.2v-23.55h-5.03v14.59l-9.49-14.59Zm-19.55,15.29h10.76v-4.29h-10.76v4.29Zm-12.13,4.75c1.58,0,2.46-.35,3.51-.7v-9.32c-.88-.35-1.76-.53-3.16-.53-2.64,0-3.51,1.58-3.51,5.45,0,3.16.7,5.1,3.16,5.1m3.51-13.43v-7.66l4.92-.35v24.96h-4.92v-1.23h-.18c-1.23,1.23-2.67,1.58-4.57,1.58-5.1,0-6.86-4.22-6.86-8.79,0-5.27,2.14-9.49,7.73-9.49,1.44,0,2.64.35,3.76,1.06l.1-.07Zm-26.01,16.94h-4.92v-17.58h4.92v1.23h.17c1.58-1.06,3.27-1.58,5.27-1.58,2.99,0,5.45,1.62,5.45,5.24v12.69h-4.92v-11.6c0-2.11-1.41-2.46-2.46-2.46-1.41,0-2.46.35-3.51.7v13.36Zm-19.34-10.55c1.41,0,2.46.18,4.11.53h.1v-.88c0-2.5-.7-3.16-3.51-3.16-2.11,0-3.34.35-5.1.88l-.53-3.69c1.76-.7,3.76-1.06,6.15-1.06,3.69,0,7.91.7,7.91,5.98v8.44h2.46v2.81c-1.23.7-3.16,1.06-4.92,1.06-1.41,0-2.35-.6-2.46-1.58h-.17c-1.58,1.06-3.09,1.58-5.1,1.58-2.99,0-5.27-1.83-5.27-5.45s2.46-5.45,6.33-5.45m4.22,3.87h-3.87c-1.23,0-1.76.42-1.76,1.58,0,1.37,1.05,1.58,2.11,1.58,1.41,0,2.46-.35,3.51-.7v-2.46Zm-16.87-16.52v5.62h4.92l-.35,3.52h-4.57v8.93c0,1.19,1.02,1.62,1.83,1.62.49,0,1.06,0,3.16-.35l.46,3.45c-1.79.49-3.55.77-4.85.77-3.06,0-5.52-1.3-5.52-4.82v-9.6h-2.46v-3.52h2.46v-5.27l4.92-.35Zm-24.96,17.86c2.28.95,4.92,1.48,7.03,1.48s3.41-1.05,3.41-2.57c0-1.65-1.3-2.57-3.69-3.41-4.04-1.41-7.63-2.64-7.63-7.38s4.11-6.68,8.82-6.68c2.6,0,5.13.63,6.86,1.3l-1.02,4.25c-2.11-.95-4.5-1.34-5.8-1.34-2.11,0-3.59.77-3.59,2.46s1.97,2.46,4.29,3.16c4.25,1.3,6.96,3.51,6.96,7.28,0,4.32-3.44,7.14-8.23,7.14-3.16,0-6.57-.74-8.47-1.72l1.06-3.97Z" style="fill:#fff;"/></g><g style="clip-path:url(#clippath-6);"><path d="m255.31,186.34c1.33-.63,3.26-1.16,4.65-1.16,2.49,0,4.15.73,4.15,2.56,0,2.82-4.15,2.72-7.15,2.89v3.66h2.99c2.49,0,4.98.2,4.98,3.02s-3.32,3.32-4.98,3.32c-1.46,0-3.82-.33-5.15-.83l-.83,3.65c1.83.83,4.98,1,6.65,1,4.95,0,8.97-2.49,8.97-6.81,0-2.66-1.49-4.52-3.99-5.35,1.66-.83,3.32-2.46,3.32-5.12,0-3.99-3.62-5.65-7.64-5.65-2.99,0-5.42.63-6.81,1.33l.83,3.49Zm-13.13,13.79c6.31-4.65,8.31-8.64,8.31-11.96,0-4.99-3.86-6.65-7.64-6.65-3.32,0-5.85.86-7.44,1.73l1.13,3.42c1.4-.66,3.32-1.49,5.65-1.49s3.32,1.66,3.32,3.49c0,4.65-7.14,9.14-10.8,12.13v3.32h16.95v-3.99h-9.47Zm-17.34-18.61c4.65,0,8.21,2.99,8.21,11.13s-3.22,11.8-8.87,11.8c-4.65,0-8.07-2.99-8.07-11.13s3.09-11.8,8.74-11.8m-.5,19.27c2.99,0,4.09-2.16,4.09-8.14,0-5.48-.76-7.48-3.75-7.48s-3.92,2.16-3.92,8.14c0,5.48.6,7.48,3.59,7.48m-19.37-.66c6.31-4.65,8.31-8.64,8.31-11.96,0-4.99-3.85-6.65-7.64-6.65-3.32,0-5.85.86-7.44,1.73l1.13,3.42c1.4-.66,3.32-1.49,5.65-1.49s3.32,1.66,3.32,3.49c0,4.65-7.14,9.14-10.8,12.13v3.32h16.95v-3.99h-9.47Zm-23.59-16.95c0,1.46,1.2,2.66,2.66,2.66s2.66-1.2,2.66-2.66-1.2-2.66-2.66-2.66-2.66,1.2-2.66,2.66m4.98,4.32h-4.65v16.62h4.65v-16.62Zm-18.28,6.65c1.33,0,2.33.17,3.89.5h.1v-.83c0-2.36-.66-2.99-3.32-2.99-1.99,0-3.16.33-4.82.83l-.5-3.49c1.66-.66,3.56-1,5.82-1,3.49,0,7.48.66,7.48,5.65v7.97h2.33v2.66c-1.16.67-2.99,1-4.65,1-1.33,0-2.23-.57-2.33-1.5h-.17c-1.49,1-2.92,1.5-4.82,1.5-2.82,0-4.98-1.73-4.98-5.15s2.33-5.15,5.98-5.15m3.99,3.65h-3.66c-1.16,0-1.66.4-1.66,1.5,0,1.3,1,1.5,1.99,1.5,1.33,0,2.33-.33,3.32-.66v-2.33Zm-26.62,6.31l-5.05-13.29-.9,13.29h-4.65l1.5-22.26h5.35l5.48,14.62,5.42-14.62h5.35l1.49,22.26h-4.65l-.9-13.29-5.05,13.29h-3.39Zm-27.35-2.23c0,1.4,1.16,2.56,2.56,2.56s2.56-1.16,2.56-2.56-1.16-2.56-2.56-2.56-2.56,1.16-2.56,2.56m-12.13-1.76c6.31-4.65,8.31-8.64,8.31-11.96,0-4.99-3.85-6.65-7.64-6.65-3.32,0-5.85.86-7.44,1.73l1.13,3.42c1.39-.66,3.32-1.49,5.65-1.49s3.32,1.66,3.32,3.49c0,4.65-7.15,9.14-10.8,12.13v3.32h16.95v-3.99h-9.47Zm-19.77,0h-5.82v3.99h15.95v-3.99h-5.48v-18.44h-3.42c-1.1.8-4.32,2.03-6.05,2.39l.33,3.26c.83,0,3.16-.17,4.49-.83v13.62Zm-18.48-3.82h10.17v-4.05h-10.17v4.05Zm-8.11,5.58c0,1.4,1.16,2.56,2.56,2.56s2.56-1.16,2.56-2.56-1.16-2.56-2.56-2.56-2.56,1.16-2.56,2.56m-10.87-20.37c4.65,0,8.21,2.99,8.21,11.13s-3.22,11.8-8.87,11.8c-4.65,0-8.07-2.99-8.07-11.13s3.09-11.8,8.74-11.8m-.5,19.27c2.99,0,4.09-2.16,4.09-8.14,0-5.48-.76-7.48-3.75-7.48s-3.92,2.16-3.92,8.14c0,5.48.6,7.48,3.59,7.48m-20.54-.66h-5.82v3.99h15.95v-3.99h-5.48v-18.44h-3.42c-1.1.8-4.32,2.03-6.05,2.39l.33,3.26c.83,0,3.16-.17,4.49-.83v13.62Z" style="fill:#fff;"/></g></g></svg>