<?xml version="1.0" encoding="UTF-8"?><svg id="Ebene_2" xmlns="http://www.w3.org/2000/svg" viewBox="0 0 151.34 58.25"><g id="Ebene_1-2"><path d="M106.7,53.46c1.36,.5,3.66,1,5.36,1s2.83-.33,2.83-1.33c0-1.33-1.43-1.66-3.2-2.13-2.8-.67-5.29-2.2-5.29-5.33,0-3.59,2.49-4.86,6.66-4.86,1.67,0,4.16,.5,5.66,1l-.7,3.66c-1.86-.67-3.63-1-4.66-1-1.63,0-2.3,.5-2.3,1.17,0,1,1.07,1.3,3,1.8,2.8,.73,5.49,1.83,5.49,5.36,0,3.73-3.16,5.33-7.49,5.33-1.5,0-4.5-.33-5.99-1l.63-3.66Zm-3.97-19.32l-4.66,.33v23.31h4.66v-23.64Zm-41.46,1.66v5.33h4.66l-.33,3.33h-4.33v8.46c0,1.13,.97,1.53,1.73,1.53,.47,0,1,0,3-.33l.43,3.26c-1.7,.47-3.36,.73-4.6,.73-2.9,0-5.23-1.23-5.23-4.56v-9.1h-2.33v-3.33h2.33v-5l4.66-.33Z" style="fill:#123274;"/><path d="M44.83,23.06l5.26-11.62,.9,11.62h-6.16ZM58.61,.08h-12.58L27.97,33.56h12.83l2.03-3.87h8.61l.84,3.87,8.81,.03,2.25-10.56L58.61,.08Z" style="fill:#123274;"/><path d="M82.36,23.06s-.93,0-1.01,0c-1.68,.16-3.24,0-4.59,0l2.47-12.29c.84,.08,1.6,0,2.36,.08,.76,0,1.52,.09,2.02,.42,4.05,2.44,2.14,11.01-1.26,11.79m1.18-23.06h-14.18l-7.09,33.56h20.01c4.47-.17,8.95-1.77,11.99-5.55,3.46-4.29,4.98-9.34,4.98-14.22,0-6.98-3.71-13.54-15.7-13.79" style="fill:#123274;"/><polygon points="7.84 .13 2.2 10.53 15.73 10.51 0 33.56 26.51 33.56 32.15 23.11 22.15 23.11 34.7 .15 7.84 .13" style="fill:#123274;"/><g><path d="M96.02,49.13c0-5.91-3.21-8.44-7.93-8.44-5.37,0-8.23,2.81-8.57,8.01h4.74c.24-3.21,1.54-4.46,3.67-4.46,2.36,0,3.38,1.35,3.38,4.9,0,4.05-1.35,5.57-3.71,5.57-1.58,0-2.55-.62-3.02-2.09-.41,1.69-1.17,3.11-2.34,4.11,1.34,1.04,3.12,1.52,5.19,1.52,5.74,0,8.61-3.21,8.61-9.12" style="fill:#3aaa35;"/><path d="M67.42,49.81c0,5.91,3.21,8.44,7.93,8.44,5.37,0,8.23-2.81,8.57-8.01h-4.74c-.24,3.21-1.54,4.46-3.67,4.46-2.36,0-3.38-1.35-3.38-4.9,0-4.05,1.35-5.57,3.71-5.57,1.58,0,2.55,.62,3.02,2.09,.41-1.69,1.17-3.11,2.34-4.11-1.34-1.04-3.12-1.52-5.19-1.52-5.74,0-8.61,3.21-8.61,9.12" style="fill:#123274;"/><path d="M151.34,30.07v1.97c-.41,.22-1.06,.42-1.66,.42-1.61,0-2.23-1.21-2.23-2.62,0-1.48,.54-2.7,2.28-2.7,.51,0,1.14,.08,1.54,.27l-.19,.46c-.3-.13-.77-.23-1.31-.23-1.31,0-1.74,.96-1.74,2.2,0,1.14,.42,2.12,1.73,2.12,.25,0,.65-.08,1.02-.18v-1.7h.56Zm-7.68-.2l2.37-2.65h.69l-2.08,2.31,2.23,2.85h-.74l-1.86-2.45-.61,.68v1.77h-.56v-5.16h.56v2.65Zm-4.56,2.15c0,.22,.18,.4,.4,.4s.4-.18,.4-.4-.18-.4-.4-.4-.4,.18-.4,.4m-2.7-3.57c1.08,0,1.62,.58,1.62,1.93s-.46,2.08-1.77,2.08c-1.08,0-1.62-.58-1.62-1.93s.46-2.08,1.77-2.08m-.12,3.58c.92,0,1.2-.66,1.2-1.66,0-.89-.19-1.5-1.12-1.5s-1.2,.66-1.2,1.66c0,.89,.19,1.5,1.12,1.5m-2.8-4.16c-.3-.13-.69-.23-1.23-.23-1.31,0-1.66,.96-1.66,2.2,0,1.14,.35,2.12,1.66,2.12,.35,0,.96-.16,1.35-.35l.15,.42c-.41,.22-.98,.42-1.58,.42-1.61,0-2.16-1.21-2.16-2.62,0-1.48,.46-2.7,2.2-2.7,.51,0,1.06,.08,1.46,.27l-.19,.46Zm-9.88,1.58c-.35-.41-.5-.72-.54-1.17-.05-.7,.53-1.14,1.23-1.14,.61,0,1.12,.35,1.13,.96,0,.67-.6,1.06-1.09,1.44l1.56,1.58c.3-.38,.54-.95,.55-1.56h.55c-.05,.7-.32,1.37-.75,1.93,.35,.3,.69,.48,1.02,.52l-.18,.45c-.52,0-.89-.3-1.23-.62-.45,.38-.92,.61-1.76,.62-1.04,0-1.68-.52-1.68-1.41,0-.73,.58-1.16,1.18-1.6m.3,.36c-.46,.33-.93,.63-.93,1.22s.51,.96,1.16,.96,1.01-.18,1.4-.49l-1.63-1.69Zm.12-.62c.43-.32,.83-.62,.83-1.09,0-.32-.23-.54-.59-.54-.39,0-.68,.32-.68,.68,0,.32,.19,.64,.44,.96m-7.97-1.98h-.56v5.16h.56v-2.43h2.76v2.43h.56v-5.16h-.56v2.23h-2.76v-2.23Zm-3.45,1.7c-.5,0-.69,.08-1,.15v2.85c.35,.08,.62,.12,.92,.12,.96,0,1.19-.77,1.19-1.62,0-.69-.11-1.5-1.12-1.5m-1.54-1.93l.54-.08v1.89h.04c.42-.27,.74-.35,1.15-.35,1.12,0,1.5,.92,1.5,1.93,0,1.16-.5,2.08-1.77,2.08-.62,0-1.12-.19-1.46-.31v-5.16Zm-5.29,1.93c.65,0,.85,.48,.85,1.09v2.37h.54v-2.6c0-.2-.02-.38-.07-.53,.25-.14,.64-.33,1.16-.33,.66,0,.86,.48,.86,1.09v2.37h.54v-2.6c0-.87-.43-1.32-1.28-1.32-.42,0-.96,.16-1.41,.49-.2-.32-.55-.49-1.07-.49-.42,0-.75,.12-1.17,.39h-.04v-.31h-.54v3.85h.54v-3.2c.25-.11,.56-.27,1.1-.27m-2.98,1.16v1.97c-.41,.22-1.06,.42-1.66,.42-1.61,0-2.23-1.21-2.23-2.62,0-1.48,.54-2.7,2.28-2.7,.51,0,1.14,.08,1.54,.27l-.19,.46c-.3-.13-.77-.23-1.31-.23-1.31,0-1.74,.96-1.74,2.2,0,1.14,.42,2.12,1.73,2.12,.25,0,.65-.08,1.02-.18v-1.7h.56Z" style="fill:#123274;"/></g></g></svg>