<?xml version="1.0" encoding="UTF-8"?><svg xmlns="http://www.w3.org/2000/svg" xmlns:xlink="http://www.w3.org/1999/xlink" viewBox="0 0 128.63 92.01"><defs><style>.l{fill:none;}.m{fill:#9d9d9c;}.n{fill:#d0d0d0;}.o{fill:#123274;}.p{clip-path:url(#f);}.q{clip-path:url(#e);}.r{clip-path:url(#d);}.s{clip-path:url(#k);}.t{clip-path:url(#j);}.u{clip-path:url(#i);}.v{clip-path:url(#h);}.w{clip-path:url(#g);}</style><clipPath id="d"><rect class="l" width="128.63" height="92.01"/></clipPath><clipPath id="e"><rect class="l" width="128.63" height="92.01"/></clipPath><clipPath id="f"><rect class="l" width="128.63" height="92.01"/></clipPath><clipPath id="g"><rect class="l" width="128.63" height="92.01"/></clipPath><clipPath id="h"><rect class="l" width="128.63" height="92.01"/></clipPath><clipPath id="i"><rect class="l" width="128.63" height="92.01"/></clipPath><clipPath id="j"><rect class="l" width="128.63" height="92.01"/></clipPath><clipPath id="k"><rect class="l" width="128.63" height="92.01"/></clipPath></defs><g id="a"/><g id="b"><g id="c"><g class="r"><path class="n" d="M84.28,29.14c.12-.47,.25-.94,.4-1.42,.63-2.12,1.49-4.33,2.62-6.56,1.04-2.05,2.03-3.84,2.95-5.4,.28-.48,.56-.94,.83-1.38,.34-.56,.68-1.08,1-1.57,.32-.49,.63-.94,.92-1.37,3.01-4.33,4.8-5.57,4.8-5.57l-1.35,.03s-.79,2.62-3.97,2.69c-3.53,.08-4.13-2.6-4.13-2.6h-1.83s-1.02,1.81-2.16,4.67c-.18,.46-.37,.94-.55,1.45-.22,.6-.43,1.23-.64,1.88-.15,.48-.3,.97-.44,1.47-.47,1.69-.88,3.51-1.13,5.41-.31,2.3-.46,4.51-.5,6.58,0,.5-.01,.99-.01,1.47,0,.62,.02,1.23,.04,1.83,.02,.5,.04,1,.07,1.48,.44,7.42,2.11,12.28,2.11,12.28,0,0-.96-5.11,.27-12.1,.08-.47,.17-.94,.28-1.43,.13-.6,.27-1.22,.43-1.84"/><path class="n" d="M100.95,25.26c-1.89,3.32-8.2,5.75-15.71,5.75-.47,0-.93-.01-1.39-.03-.1,.48-.19,.96-.28,1.43,.55,.02,1.11,.03,1.67,.03,10.64,0,19.26-4.14,19.26-9.25,0-.56-.11-1.11-.31-1.64-.51,1.36-1.64,2.62-3.25,3.71"/><path class="n" d="M72.86,18.12c2.47-1.39,5.93-2.35,9.86-2.65,.14-.5,.29-.99,.44-1.47-4.04,.21-7.71,1.02-10.61,2.24l.31,1.88Z"/><path class="n" d="M69.53,25.26c-1.61-1.08-2.74-2.34-3.25-3.71-.2,.53-.3,1.08-.3,1.65,0,2.5,2.07,4.77,5.42,6.43,.68,.34,1.4,.65,2.18,.93,2.21,.81,4.8,1.39,7.61,1.68-.03-.48-.05-.98-.07-1.48-5.62-.7-10.06-2.81-11.58-5.5"/><path class="n" d="M97.94,16.25c-1.97-.83-4.31-1.47-6.87-1.86-.27,.44-.54,.9-.83,1.38,2.91,.45,5.45,1.28,7.39,2.37l.31-1.88Z"/><path class="n" d="M92.39,7.78c2.15,0,3.89-1.74,3.89-3.89S94.54,0,92.39,0s-3.89,1.74-3.89,3.89,1.74,3.89,3.89,3.89"/><path class="o" d="M93.01,11.4c-.3,.43-.6,.88-.92,1.37,2.39,.53,4.46,1.33,6.06,2.32,2.13,1.32,3.39,2.98,3.39,4.78,0,.6-.14,1.19-.41,1.75-1.66,3.47-8.13,6.06-15.87,6.06-.19,0-.38,0-.56,0h0c-.38,0-.97-.02-1.85-.06-.7-.04-1.33-.12-1.74-.18h0c-.15-.03-.3-.05-.45-.07-.02,0-.03,0-.03,0h0c-5.18-.74-9.29-2.68-10.9-5.15-.49-.74-.75-1.53-.75-2.35,0-1.41,.78-2.73,2.13-3.87,2.58-2.17,7.26-3.69,12.71-3.92,.18-.51,.37-.99,.55-1.45-10.23,.22-18.37,4.27-18.37,9.24,0,.56,.1,1.11,.31,1.64,.51,1.36,1.64,2.62,3.25,3.71,.57,.38,1.19,.74,1.87,1.08,.68,.33,1.4,.64,2.18,.93,2.18,.8,4.73,1.38,7.5,1.67,.43,.05,1.01,.11,1.65,.15,1.41,.09,2.51,.07,2.51,.07,6.48,0,12.21-1.54,15.7-3.89,1.61-1.08,2.74-2.35,3.25-3.71,.2-.53,.3-1.08,.3-1.65,0-3.78-4.73-7.03-11.5-8.47"/></g><polygon class="m" points=".31 80.82 .31 81.83 2.65 81.83 0 89.53 4.02 89.53 4.02 88.53 1.54 88.53 4.16 80.82 .31 80.82"/><g class="q"><path class="m" d="M7.1,86.05c0-.45,0-1.48-.66-1.48s-.63,1.03-.63,1.48h1.29Zm-1.29,.77c0,.49-.02,1.83,.68,1.83,.58,0,.68-.63,.68-1.09h1c0,1.07-.47,2.06-1.7,2.06-1.63,0-1.78-1.73-1.78-2.97s.14-3.05,1.74-3.05,1.77,1.85,1.77,3.05v.17h-2.4Z"/><path class="m" d="M10.13,84.37h.02c.24-.47,.6-.76,1.18-.76,1.15,0,1.19,1.03,1.19,1.92v4.01h-1.09v-4.03c0-.4-.07-.92-.65-.92-.72,0-.66,.82-.66,1.32v3.64h-1.09v-5.83h1.09v.67Z"/></g><polygon class="m" points="14.83 82.05 14.83 83.7 15.41 83.7 15.41 84.55 14.83 84.55 14.83 89.53 13.75 89.53 13.75 84.55 13.16 84.55 13.16 83.7 13.75 83.7 13.75 82.05 14.83 82.05"/><g class="p"><path class="m" d="M17.16,84.41h.02c.25-.51,.63-.81,1.24-.81v1.07h-.19c-.81-.01-1.06,.44-1.06,1.18v3.67h-1.1v-5.83h1.09v.72Z"/><path class="m" d="M21.52,86.61c0-.46,.05-2.03-.68-2.03-.81,0-.72,1.56-.72,2.03s-.09,2.04,.72,2.04c.73,0,.68-1.58,.68-2.04m-.03,2.17h-.02c-.22,.51-.45,.84-1.07,.84-1.35,0-1.38-2.14-1.38-3.08s.03-2.93,1.41-2.93c.51,0,.84,.31,1.04,.74h.02v-.65h1.09v5.83h-1.09v-.75Z"/></g><rect class="m" x="23.56" y="79.94" width="1.09" height="9.59"/><g class="w"><path class="m" d="M27.88,86.05c0-.45,0-1.48-.66-1.48s-.64,1.03-.64,1.48h1.29Zm-1.29,.77c0,.49-.02,1.83,.68,1.83,.58,0,.68-.63,.68-1.09h1c0,1.07-.47,2.06-1.7,2.06-1.63,0-1.78-1.73-1.78-2.97s.14-3.05,1.74-3.05,1.77,1.85,1.77,3.05v.17h-2.4Z"/><path class="m" d="M30.91,84.41h.02c.25-.51,.63-.81,1.24-.81v1.07h-.19c-.81-.01-1.06,.44-1.06,1.18v3.67h-1.1v-5.83h1.09v.72Z"/></g><path class="m" d="M37.62,85.67l-.44-3.16h-.02l-.69,4.43h1.39l-.23-1.26Zm.02-4.85l1.87,8.71h-1.17l-.32-1.7h-1.73l-.32,1.7h-1.13l1.89-8.71h.91Z"/><g class="v"><path class="m" d="M42.52,86.61c0-.47,.09-2.03-.72-2.03-.73,0-.68,1.57-.68,2.03s-.05,2.03,.68,2.05c.81-.01,.72-1.57,.72-2.05m-2.45-6.66h1.09v4.4h.02c.22-.45,.49-.74,1.04-.74,1.38,0,1.41,1.96,1.41,2.93s-.02,3.08-1.38,3.08c-.62,0-.85-.34-1.07-.84h-.02v.75h-1.09v-9.59Z"/><path class="m" d="M45.56,84.41h.02c.25-.51,.64-.81,1.24-.81v1.07h-.18c-.81-.01-1.06,.44-1.06,1.18v3.67h-1.1v-5.83h1.09v.72Z"/><path class="m" d="M49.81,86.05c0-.45,0-1.48-.66-1.48s-.63,1.03-.63,1.48h1.29Zm-1.29,.77c0,.49-.02,1.83,.68,1.83,.58,0,.68-.63,.68-1.09h1.01c0,1.07-.47,2.06-1.7,2.06-1.63,0-1.78-1.73-1.78-2.97s.14-3.05,1.74-3.05,1.77,1.85,1.77,3.05v.17h-2.4Z"/><path class="m" d="M54.17,84.9h-.02c-.12-.17-.27-.27-.51-.28-.94,.01-.96,1.32-.96,1.94,0,.59,.02,2.04,.94,2.04,.24,0,.38-.09,.55-.22v1.01c-.28,.16-.55,.23-.88,.23-1.54,0-1.72-1.8-1.72-2.96s.14-3.06,1.73-3.06c.32,0,.58,.06,.87,.2v1.1Z"/><path class="m" d="M56.04,79.94v4.42h.02c.24-.47,.6-.76,1.18-.76,1.17,0,1.19,1.03,1.19,1.92v4.01h-1.09v-4.03c0-.4-.07-.92-.65-.92-.72,0-.66,.82-.66,1.32v3.64h-1.09v-9.59h1.09Z"/><path class="m" d="M60.53,84.37h.02c.24-.47,.6-.76,1.18-.76,1.15,0,1.19,1.03,1.19,1.92v4.01h-1.09v-4.03c0-.4-.07-.92-.65-.92-.72,0-.66,.82-.66,1.32v3.64h-1.09v-5.83h1.09v.67Z"/><path class="m" d="M65.01,83.7v3.65c0,.52-.07,1.28,.67,1.28s.65-.7,.65-1.22v-3.71h1.09v3.94c0,1.2-.36,1.99-1.69,1.99-1.58,0-1.8-.89-1.8-2.22v-3.71h1.09Z"/><path class="m" d="M69.5,84.37h.02c.24-.47,.6-.76,1.18-.76,1.16,0,1.19,1.03,1.19,1.92v4.01h-1.09v-4.03c0-.4-.07-.92-.65-.92-.72,0-.66,.82-.66,1.32v3.64h-1.09v-5.83h1.09v.67Z"/><path class="m" d="M74.51,84.57c-.75,0-.68,1.59-.68,2.01,0,.44-.07,2.07,.72,2.07s.67-1.54,.67-2.01,0-2.07-.7-2.07m1.79,5c0,2.08-.62,2.44-1.78,2.44-1.05,0-1.72-.6-1.72-1.69v-.16h1.05c-.02,.42,.15,.88,.69,.88,.73,0,.66-.7,.66-1.24v-.97h-.02c-.15,.47-.51,.81-1.04,.79-1.39,0-1.42-1.98-1.42-2.97,0-.94-.02-3.05,1.4-3.05,.58,0,.83,.32,1.06,.79l.02-.02v-.67h1.1v5.88Z"/><path class="m" d="M79.5,84.89c-.21-.18-.54-.31-.81-.31-.4,0-.74,.23-.74,.62,.02,.98,1.82,1.03,1.82,2.69,0,1.03-.64,1.73-1.67,1.73-.38,0-.62-.08-.95-.28v-1.06c.28,.22,.53,.37,.9,.37,.47,0,.73-.29,.73-.74,0-1.03-1.82-1.1-1.82-2.71,0-.92,.64-1.59,1.56-1.59,.37,0,.67,.07,.98,.25v1.03Z"/></g><rect class="m" x="80.36" y="86.1" width="2.06" height=".88"/><g class="u"><path class="m" d="M84.64,81.8v6.75c1.91,.06,1.82-1.74,1.82-3.22,0-1.34,.13-3.64-1.82-3.52m.14-.98c1.36,0,2.91,.09,2.91,4.51,0,4.02-1.34,4.2-3.41,4.2h-.8v-8.71h1.29Z"/><path class="m" d="M89.75,89.53h-1.09v-5.83h1.09v5.83Zm-1.26-7.6c0-.39,.32-.72,.73-.72,.38,0,.72,.32,.72,.72s-.33,.73-.72,.73c-.4,0-.73-.32-.73-.73"/><path class="m" d="M92.98,86.05c0-.45,0-1.48-.66-1.48s-.64,1.03-.64,1.48h1.29Zm-1.29,.77c0,.49-.02,1.83,.68,1.83,.58,0,.68-.63,.68-1.09h1c0,1.07-.47,2.06-1.7,2.06-1.63,0-1.78-1.73-1.78-2.97s.14-3.05,1.74-3.05,1.77,1.85,1.77,3.05v.17h-2.4Z"/><path class="m" d="M96.01,84.37h.02c.24-.47,.6-.76,1.18-.76,1.16,0,1.19,1.03,1.19,1.92v4.01h-1.09v-4.03c0-.4-.07-.92-.65-.92-.72,0-.66,.82-.66,1.32v3.64h-1.09v-5.83h1.09v.67Z"/><path class="m" d="M101.6,84.89c-.21-.18-.54-.31-.81-.31-.4,0-.74,.23-.74,.62,.02,.98,1.82,1.03,1.82,2.69,0,1.03-.64,1.73-1.68,1.73-.38,0-.62-.08-.95-.28v-1.06c.28,.22,.53,.37,.9,.37,.47,0,.73-.29,.73-.74,0-1.03-1.82-1.1-1.82-2.71,0-.92,.64-1.59,1.56-1.59,.37,0,.67,.07,.98,.25v1.03Z"/></g><polygon class="m" points="103.9 82.05 103.9 83.7 104.48 83.7 104.48 84.55 103.9 84.55 103.9 89.53 102.81 89.53 102.81 84.55 102.22 84.55 102.22 83.7 102.81 83.7 102.81 82.05 103.9 82.05"/><g class="t"><path class="m" d="M111.88,84.93v.14c0,1.66,.24,4.57-2.08,4.57-2.07,0-2.31-1.99-2.31-4.45s.2-4.49,2.21-4.49c1.24,0,1.82,.62,2.12,1.78l-1.1,.45c-.11-.58-.28-1.14-.99-1.14-.95,0-1.02,1.29-1.02,3.4,0,3.03,.51,3.37,1.02,3.37,.47,0,.99-.07,.99-2.15v-.47h-.97v-1.01h2.12Z"/><path class="m" d="M113.91,84.41h.02c.22-.49,.59-.81,1.14-.81,.52,0,.93,.3,1.05,.81h.02c.23-.51,.61-.81,1.2-.81,1.03,0,1.28,.64,1.28,1.41v4.52h-1.08v-4.09c0-.43-.06-.87-.59-.87-.78,0-.69,.73-.69,1.25v3.71h-1.09v-3.96c-.01-.46,0-.99-.62-.99-.68,0-.64,.75-.66,1.25v3.71h-1.09v-5.83h1.1v.72Z"/><path class="m" d="M122.08,86.61c0-.47,.09-2.03-.72-2.03-.73,0-.68,1.57-.68,2.03s-.05,2.03,.68,2.05c.81-.01,.72-1.57,.72-2.05m-2.45-6.66h1.09v4.4h.02c.22-.45,.49-.74,1.04-.74,1.38,0,1.41,1.96,1.41,2.93s-.02,3.08-1.38,3.08c-.62,0-.85-.34-1.07-.84h-.02v.75h-1.09v-9.59Z"/></g><polygon class="m" points="127.13 80.82 127.13 84.22 125.38 84.22 125.38 80.82 124.23 80.82 124.23 89.53 125.38 89.53 125.38 85.22 127.13 85.22 127.13 89.53 128.28 89.53 128.28 80.82 127.13 80.82"/><path class="o" d="M58.21,64.75l6.8-15.09,1.17,15.09h-7.97Zm17.84-29.84h-16.28l-23.38,43.49h16.61l2.62-5.03h11.15l1.09,5.03,11.4,.04,2.91-13.72-6.11-29.81Z"/><g class="s"><path class="o" d="M106.79,64.75s-1.2-.01-1.31,0c-2.18,.22-4.19,0-5.94,0l3.2-15.97c1.09,.11,2.07,0,3.06,.11,.98,0,1.97,.11,2.62,.55,5.25,3.17,2.77,14.3-1.63,15.31m1.53-29.95h-18.36l-9.18,43.6h25.9c5.79-.22,11.58-2.29,15.51-7.21,4.48-5.57,6.45-12.13,6.45-18.47,0-9.07-4.81-17.59-20.32-17.92"/></g><polygon class="o" points="3.04 48.48 20.54 48.45 .19 78.39 34.5 78.39 41.8 64.81 28.86 64.81 45.1 34.99 10.33 34.97 3.04 48.48"/></g></g></svg>