<?xml version="1.0" encoding="UTF-8"?><svg id="Ebene_2" xmlns="http://www.w3.org/2000/svg" viewBox="0 0 567.1 232.44"><defs><style>.cls-1{fill:#0f072e;}</style></defs><g id="Ebene_1-2"><path class="cls-1" d="M292.79,111.31c0-36.01-27.83-52.38-63.84-52.38-29.46,0-65.48,13.1-72.02,47.47l31.1,3.27c4.91-18.01,21.28-24.55,39.29-24.55s34.38,8.18,34.38,26.19c0,37.32-109.67,3.93-109.67,72.02,0,32.74,26.19,49.11,57.29,49.11,29.46,0,48.78-19.64,55.33-36.01h.33l6.55,32.74h32.74l-11.46-49.11v-68.75ZM261.69,157.14c0,32.74-21.28,50.74-44.2,50.74s-34.38-8.18-34.38-27.83c0-33.07,58.93-18.01,78.57-40.92v18.01Z"/><polygon class="cls-1" points="130.95 96.58 130.95 62.2 3.27 62.2 3.27 90.03 98.21 90.03 0 194.79 0 229.17 137.5 229.17 137.5 201.34 32.74 201.34 130.95 96.58"/><path class="cls-1" d="M401,204.61c-32.74,0-52.38-26.19-52.38-58.93s19.64-58.93,52.38-58.93,52.38,26.19,52.38,58.93-19.64,58.93-52.38,58.93ZM516.07,178.14v39.32h-33.22V0h-31.1v90.03h-.33c-8.18-13.1-25.86-31.1-55.33-31.1-45.83,0-78.57,37.65-78.57,86.76s32.74,86.76,78.57,86.76c29.46,0,48.78-19.64,56.96-32.74h.33v29.46h29.46s33.29,0,33.29,0h50.95v-51.03h-51.02Z"/></g></svg>