<?xml version="1.0" encoding="UTF-8"?><svg xmlns="http://www.w3.org/2000/svg" viewBox="0 0 38.54 44.51"><g id="a"/><g id="b"><g id="c"><g id="d"><g id="e"><g><path d="M18.3,29.14c.12-.47,.25-.94,.4-1.42,.63-2.12,1.49-4.33,2.62-6.56,1.04-2.05,2.03-3.84,2.95-5.4,.28-.48,.56-.94,.83-1.38,.34-.56,.68-1.08,1-1.57s.63-.94,.92-1.37c3.01-4.33,4.8-5.57,4.8-5.57l-1.35,.03s-.79,2.62-3.97,2.69c-3.53,.08-4.13-2.6-4.13-2.6h-1.83s-1.02,1.81-2.16,4.67c-.18,.46-.37,.94-.55,1.45-.22,.6-.43,1.23-.64,1.88-.15,.48-.3,.97-.44,1.47-.47,1.69-.88,3.51-1.13,5.41-.31,2.3-.46,4.51-.5,6.58,0,.5-.01,.99-.01,1.47,0,.62,.02,1.23,.04,1.83,.02,.5,.04,1,.07,1.48,.44,7.42,2.11,12.28,2.11,12.28,0,0-.96-5.11,.27-12.1,.08-.47,.17-.94,.28-1.43,.13-.6,.27-1.22,.43-1.84" style="fill:#d0d0d0;"/><path d="M34.97,25.26c-1.89,3.32-8.2,5.75-15.71,5.75-.47,0-.93-.01-1.39-.03-.1,.48-.19,.96-.28,1.43,.55,.02,1.11,.03,1.67,.03,10.64,0,19.26-4.14,19.26-9.25,0-.56-.11-1.11-.31-1.64-.51,1.36-1.64,2.62-3.25,3.71" style="fill:#d0d0d0;"/><path d="M6.88,18.12c2.47-1.39,5.93-2.35,9.86-2.65,.14-.5,.29-.99,.44-1.47-4.04,.21-7.71,1.02-10.61,2.24l.31,1.88Z" style="fill:#d0d0d0;"/><path d="M3.55,25.26c-1.61-1.08-2.74-2.34-3.25-3.71-.2,.53-.3,1.08-.3,1.65,0,2.5,2.07,4.77,5.42,6.43,.68,.34,1.4,.65,2.18,.93,2.21,.81,4.8,1.39,7.61,1.68-.03-.48-.05-.98-.07-1.48-5.62-.7-10.06-2.81-11.58-5.5" style="fill:#d0d0d0;"/><path d="M31.96,16.25c-1.97-.83-4.31-1.47-6.87-1.86-.27,.44-.54,.9-.83,1.38,2.91,.45,5.45,1.28,7.39,2.37l.31-1.88h0Z" style="fill:#d0d0d0;"/><path d="M26.41,7.78c2.15,0,3.89-1.74,3.89-3.89s-1.74-3.89-3.89-3.89-3.89,1.74-3.89,3.89,1.74,3.89,3.89,3.89" style="fill:#d0d0d0;"/><path d="M27.03,11.4c-.3,.43-.6,.88-.92,1.37,2.39,.53,4.46,1.33,6.06,2.32,2.13,1.32,3.39,2.98,3.39,4.78,0,.6-.14,1.19-.41,1.75-1.66,3.47-8.13,6.06-15.87,6.06h-.56c-.38,0-.97-.02-1.85-.06-.7-.04-1.33-.12-1.74-.18h0c-.15-.03-.3-.05-.45-.07h-.03c-5.18-.74-9.29-2.68-10.9-5.15-.49-.74-.75-1.53-.75-2.35,0-1.41,.78-2.73,2.13-3.87,2.58-2.17,7.26-3.69,12.71-3.92,.18-.51,.37-.99,.55-1.45C8.16,10.85,.02,14.9,.02,19.87c0,.56,.1,1.11,.31,1.64,.51,1.36,1.64,2.62,3.25,3.71,.57,.38,1.19,.74,1.87,1.08,.68,.33,1.4,.64,2.18,.93,2.18,.8,4.73,1.38,7.5,1.67,.43,.05,1.01,.11,1.65,.15,1.41,.09,2.51,.07,2.51,.07,6.48,0,12.21-1.54,15.7-3.89,1.61-1.08,2.74-2.35,3.25-3.71,.2-.53,.3-1.08,.3-1.65,0-3.78-4.73-7.03-11.5-8.47" style="fill:#123274;"/></g></g></g></g></g></svg>