<?xml version="1.0" encoding="UTF-8"?><svg id="Ebene_2" xmlns="http://www.w3.org/2000/svg" viewBox="0 0 512 512"><defs><style>.cls-1{fill:none;stroke:#123274;stroke-linecap:round;stroke-linejoin:round;stroke-width:16px;}</style></defs><g id="Bike_Leasing"><g id="bicycle_-_ecologist"><circle class="cls-1" cx="96" cy="416" r="88"/><circle class="cls-1" cx="416" cy="416" r="88"/><polyline class="cls-1" points="416 416 360 192 344 192"/><path class="cls-1" d="M192,256h-56v-24c0-8,8-8,8-8"/><polyline class="cls-1" points="336 280 376 280 280 368"/><polyline class="cls-1" points="216 416 96 416 160 288"/><path class="cls-1" d="M310.6,64c-3.3,9.3-12.2,16-22.6,16-13.3,0-24-10.7-24-24v-24c0-13.3,10.7-24,24-24s24,10.7,24,24"/><line class="cls-1" x1="296" y1="40" x2="328" y2="32"/><path class="cls-1" d="M320,176c-21.5-9.6-40.5-24.5-57.2-41.2l-14.8-14.8"/><path class="cls-1" d="M256,168c-8,8-8,24-8,24h-72c0-46.3,26.4-79.3,45.3-97,9.9-9.3,22-15.8,35.2-19.1h0c9-2.2,18.3,2.3,22,10.7l33.5,41.4,32,32c8,8,24,8,24,16l-8,16"/><path class="cls-1" d="M248,232v168l16,8c8.1,4.1,16,13.7,16,22.8v1.2c0,4.4-3.6,8-8,8h-48c-4,0-7.4-2.9-7.9-6.9v-17"/><path class="cls-1" d="M176,192v12.8c0,23.4,0,35.2,16,51.2l15.2,112,2.1,16h6.6"/><path class="cls-1" d="M248,192l48,40c16,16,18.9,28.4,8,40l-24,24"/><line class="cls-1" x1="368" y1="192" x2="456" y2="192"/><line class="cls-1" x1="416" y1="256" x2="416" y2="192"/><line class="cls-1" x1="400" y1="224" x2="448" y2="224"/><path class="cls-1" d="M408,256h24c8.8,0,16-7.2,16-16v-48"/></g></g></svg>