<?xml version="1.0" encoding="UTF-8"?><svg id="Ebene_2" xmlns="http://www.w3.org/2000/svg" viewBox="0 0 511.99 512.01"><defs><style>.cls-1{fill:none;stroke:#123274;stroke-linecap:round;stroke-linejoin:round;stroke-width:16px;}</style></defs><g id="Kitagebühren"><g id="Childcare"><path class="cls-1" d="M49.79,397.91c-5.7,0-11.3-3.1-14.2-8.5-4.1-7.8-1.2-17.5,6.6-21.6,75.1-39.8,137-84.6,189.2-137,52.2-52.4,96.9-114.5,136.6-189.8,4.1-7.8,13.8-10.8,21.6-6.7s10.8,13.8,6.7,21.6c-41.2,78.2-87.7,142.8-142.2,197.5-54.5,54.7-118.9,101.4-196.9,142.7-2.3,1.2-4.8,1.8-7.4,1.8Z"/><path class="cls-1" d="M182.19,316.51l35.7,17.9c11.7,5.9,25.8,3.6,35-5.7l76.3-76.6c9.2-9.3,11.5-23.4,5.7-35.1l-17.9-35.8"/><path class="cls-1" d="M239.99,170.11c-11.9-18.7-20.4-39.6-24.7-61.6-7.8-39.8-17.3-71-56.5-89.5C118.29-.09,69.19,5.41,37.79,37.41-2.11,77.91-1.91,143.21,38.29,183.51c19.9,19.9,44.6,27.1,73.1,32.8,34.8,6.9,62.7,19.6,87.8,44.8"/><path class="cls-1" d="M232.19,337.61c1.3,23.7,11,47,29.1,65.1,39.1,39.1,102.4,39.1,141.4,0,39.1-39.1,39.1-102.4,0-141.4-10-10-21.7-17.5-34.1-22.4"/><path class="cls-1" d="M186.49,315.81c-1.6,9.1-2.5,18.6-2.5,28.2,0,88.4,71.6,160,160,160s160-71.6,160-160-71.6-160-160-160c-8.2,0-16.2.6-24,1.8"/></g></g></svg>