<?xml version="1.0" encoding="UTF-8"?><svg id="Ebene_2" xmlns="http://www.w3.org/2000/svg" viewBox="0 0 512 512"><defs><style>.cls-1{fill:none;stroke:#123274;stroke-linecap:round;stroke-linejoin:round;stroke-width:16px;}</style></defs><g id="Private_zusatzkrankenversicherung"><g id="accident_insurance"><path class="cls-1" d="M312,232v-56c0-22.1,7.4-29.5,21.6-37.9l58.4-18.1h16"/><polyline class="cls-1" points="464 360 464 504 408 504 408 504 352 504 352 312"/><line class="cls-1" x1="464" y1="184" x2="464" y2="328"/><path class="cls-1" d="M464,328l40-32v-120c0-22.1-7.4-29.5-21.7-37.9l-58.3-18.1h-16"/><path class="cls-1" d="M408,120c-22.1,0-40-19.3-40-43.1v-31.6c0-20.6,17.9-37.3,40-37.3s40,16.7,40,37.3v31.6c0,23.8-17.9,43.1-40,43.1Z"/><polygon class="cls-1" points="144 320 144 280 192 280 192 320 232 320 232 368 192 368 192 408 144 408 144 368 104 368 104 320 144 320"/><path class="cls-1" d="M392,280h-72c-8.8,0-16-7.2-16-16v-32h88c13.3,0,24,10.7,24,24h0c0,13.3-10.7,24-24,24Z"/><line class="cls-1" x1="352" y1="232" x2="352" y2="184"/><path class="cls-1" d="M400,232s32-48,48-104"/><line class="cls-1" x1="352" y1="280" x2="400" y2="232"/><line class="cls-1" x1="312" y1="272" x2="352" y2="232"/><path class="cls-1" d="M320,280c0,64-8.3,156.9-152,224C24.3,436.9,8,344,8,280v-48s98.1-6.7,160-48c42.9,28.6,103.1,43.3,136.1,48"/><line class="cls-1" x1="408" y1="312" x2="408" y2="504"/></g></g></svg>