<?xml version="1.0" encoding="UTF-8"?><svg id="Ebene_2" xmlns="http://www.w3.org/2000/svg" viewBox="0 0 512 511.8"><defs><style>.cls-1{fill:none;stroke:#123274;stroke-linecap:round;stroke-linejoin:round;stroke-width:16px;}</style></defs><g id="Betriebssystem"><g id="installing"><path class="cls-1" d="M24,455.4V178.3c0-14.7,11.9-26.5,26.5-26.5h53.5"/><polyline class="cls-1" points="56 455.8 56 183.8 120 183.8"/><path class="cls-1" d="M488,455.4V178.3c0-14.7-11.9-26.5-26.5-26.5h-53.5"/><polyline class="cls-1" points="456 455.8 456 183.8 392 183.8"/><path class="cls-1" d="M448,503.8c32,0,56-15.8,56-48h-176v16h-144v-16H8c-.1,32.2,17.3,48,56,48h384Z"/><path class="cls-1" d="M256,247.8c8.2,0,16.2-.8,24-2.4v-24.7c8.8-2.3,17.1-5.7,24.7-10.2l17.5,17.5c13.5-8.9,25-20.5,33.9-33.9l-17.5-17.5c4.5-7.6,8-15.9,10.2-24.7h24.7c1.6-7.8,2.4-15.8,2.4-24s-.8-16.2-2.4-24h-24.7c-2.3-8.8-5.7-17.1-10.2-24.7l17.5-17.5c-8.9-13.5-20.5-25-33.9-33.9l-17.5,17.5c-7.6-4.5-15.9-8-24.7-10.2V10.4c-7.8-1.6-15.8-2.4-24-2.4s-16.2.8-24,2.4v24.7c-8.8,2.3-17.1,5.7-24.7,10.2l-17.5-17.5c-13.5,8.9-25,20.5-33.9,33.9l17.5,17.5c-4.5,7.6-8,15.9-10.2,24.7h-24.7c-1.6,7.8-2.4,15.8-2.4,24s.8,16.2,2.4,24h24.7c2.3,8.8,5.7,17.1,10.2,24.7l-17.5,17.5c8.9,13.5,20.5,25,33.9,33.9l17.5-17.5c7.6,4.5,15.9,8,24.7,10.2v24.7c7.8,1.6,15.8,2.4,24,2.4Z"/><circle class="cls-1" cx="256" cy="127.8" r="32"/><line class="cls-1" x1="240" y1="279.8" x2="240" y2="351.8"/><line class="cls-1" x1="240" y1="383.8" x2="240" y2="391.8"/><line class="cls-1" x1="272" y1="279.8" x2="272" y2="439.8"/></g></g></svg>