<?xml version="1.0" encoding="UTF-8"?><svg id="Ebene_2" xmlns="http://www.w3.org/2000/svg" viewBox="0 0 511.95 511.91"><defs><style>.cls-1{fill:none;stroke:#123274;stroke-linecap:round;stroke-linejoin:round;stroke-width:16px;}</style></defs><g id="Bewegte_Pause"><g id="sport_running_exercise"><path class="cls-1" d="M503.95,432.01c0,40-32,40-32,40h-72c-32,0-72-16-104-48-28.3-28.3-112-144-160-200-21.5-25-51.2-48.2-70.3-60.9-10-6.6-23.2-4.8-31.2,4.1l-22,24.8c-6.8,9.5-5.7,22.6,2.6,30.9l229.4,229.5c33,33,77.8,51.5,124.5,51.5h103s32-.9,32-32v-48"/><path class="cls-1" d="M57.35,158.61l113.9-113.9c2.7-2.7,6.9-3.1,10.1-1l3,2c9.2,6.1,13,17.7,9.3,28l-15.7,44c-5.1,14.4,10.8,27,23.7,18.8,28.3-18.1,66.5-36.3,86.3-16.5,16,16,16,56,16,56"/><line class="cls-1" x1="287.95" y1="208.01" x2="375.95" y2="224.01"/><line class="cls-1" x1="303.95" y1="264.01" x2="375.95" y2="264.01"/><line class="cls-1" x1="327.95" y1="312.01" x2="375.95" y2="312.01"/><line class="cls-1" x1="359.95" y1="360.01" x2="391.95" y2="352.01"/><path class="cls-1" d="M367.95,192.31V16.01c0-4.9-4.4-8.7-9.3-7.9l-66.7,10.8c-19.1,2.7-31.5,21.5-26.4,40.1l6.4,21"/><line class="cls-1" x1="367.95" y1="232.41" x2="367.95" y2="222.51"/><line class="cls-1" x1="367.95" y1="279.51" x2="367.95" y2="264.51"/><path class="cls-1" d="M370.75,320.01c-.6-2.5-1-5.6-1.4-8"/><path class="cls-1" d="M503.95,448.01s-2.9-22.3-56-40c-24-8-49-24-64.3-53.6"/><line class="cls-1" x1="120.25" y1="8.01" x2="136.65" y2="24.51"/><line class="cls-1" x1="111.95" y1="48.01" x2="71.95" y2="8.01"/><line class="cls-1" x1="87.95" y1="72.01" x2="79.95" y2="64.01"/></g></g></svg>