<?xml version="1.0" encoding="UTF-8"?><svg id="Ebene_2" xmlns="http://www.w3.org/2000/svg" viewBox="0 0 512.05 511.72"><defs><style>.cls-1{fill:none;stroke:#123274;stroke-linecap:round;stroke-linejoin:round;stroke-width:16px;}</style></defs><g id="Grundlagenhilfe_Pflegelotsen"><g id="employee_benefits"><path class="cls-1" d="M208,408.2h136c13.3,0,24-10.7,24-24h0c0-13.2-10.7-24-24-24h-88c-40-48-144-48-144-48l-30.9-.1c-40.3-.2-73.1,32.3-73.1,72.6h0c0,32.8,22,61.5,53.6,70.1l172.8,46.9c14.4,3.7,29.6,2.3,43-4l212.8-102.4c12-5.6,17.2-19.9,11.6-31.9h0c-5.6-12-19.9-17.2-31.9-11.6l-121,56.4"/><polygon class="cls-1" points="352 176 280 176 280 104 232 104 232 176 160 176 160 224 232 224 232 296 280 296 280 224 352 224 352 176"/><polygon class="cls-1" points="464 88 432 88 432 56 400 56 400 88 368 88 368 120 400 120 400 152 432 152 432 120 464 120 464 88"/><line class="cls-1" x1="72" y1="96" x2="72" y2="144"/><line class="cls-1" x1="48" y1="120" x2="96" y2="120"/><line class="cls-1" x1="392" y1="264" x2="392" y2="312"/><line class="cls-1" x1="368" y1="288" x2="416" y2="288"/><line class="cls-1" x1="160" y1="8" x2="160" y2="72"/><line class="cls-1" x1="128" y1="40" x2="192" y2="40"/></g></g></svg>