<?xml version="1.0" encoding="UTF-8"?><svg id="Ebene_2" xmlns="http://www.w3.org/2000/svg" viewBox="0 0 400 512"><defs><style>.cls-1{fill:none;stroke:#123274;stroke-linecap:round;stroke-linejoin:round;stroke-width:16px;}</style></defs><g id="Jährliche_Gehaltsanpassungen"><g id="stock_options_ESOP"><path class="cls-1" d="M312,504H24c-8.8,0-16-7.2-16-16V24c0-8.8,7.2-16,16-16h352c8.8,0,16,7.2,16,16v400l-80,80Z"/><path class="cls-1" d="M304,464v-24c0-8.8,7.2-16,16-16h72"/><path class="cls-1" d="M128,352s-8-8-24-8c-17.7,0-24,7.2-24,16,0,8,8.6,13.3,24,16,15.6,2.7,32,8,32,24,0,13.3-14.3,24-32,24s-32-10.7-32-24"/><line class="cls-1" x1="104" y1="328" x2="104" y2="344"/><line class="cls-1" x1="104" y1="424" x2="104" y2="440"/><circle class="cls-1" cx="104" cy="152" r="16"/><circle class="cls-1" cx="168" cy="120" r="16"/><circle class="cls-1" cx="232" cy="144" r="16"/><circle class="cls-1" cx="296" cy="88" r="16"/><line class="cls-1" x1="104" y1="264" x2="104" y2="216"/><line class="cls-1" x1="168" y1="264" x2="168" y2="184"/><line class="cls-1" x1="232" y1="264" x2="232" y2="208"/><line class="cls-1" x1="296" y1="264" x2="296" y2="152"/><line class="cls-1" x1="72" y1="264" x2="328" y2="264"/><line class="cls-1" x1="244.6" y1="134.2" x2="283.4" y2="97.8"/><line class="cls-1" x1="183.1" y1="125" x2="216.9" y2="139"/><line class="cls-1" x1="118.6" y1="145.5" x2="153.4" y2="126.5"/><line class="cls-1" x1="184" y1="328" x2="328" y2="328"/><line class="cls-1" x1="184" y1="376" x2="256" y2="376"/></g></g></svg>