<?xml version="1.0" encoding="UTF-8"?><svg id="Ebene_2" xmlns="http://www.w3.org/2000/svg" viewBox="0 0 512 512"><defs><style>.cls-1{fill:none;stroke:#123274;stroke-linecap:round;stroke-linejoin:round;stroke-width:16px;}</style></defs><g id="Vermögenswirksame_Leistungen"><g id="retirement_planning_for_employees"><path class="cls-1" d="M360,96s-8,0-24,8c-38.5,19.3-48,48-48,88v64"/><polyline class="cls-1" points="400 248 400 467 400 504 352 504 352 360"/><line class="cls-1" x1="480" y1="248" x2="480" y2="504"/><path class="cls-1" d="M400,40h0s0,16-16,16h-24"/><path class="cls-1" d="M360,96v-50.7c0-20.6,17.9-37.3,40-37.3s40,16.7,40,37.3v31.6c0,23.8-17.9,43.1-40,43.1"/><path class="cls-1" d="M328,152s16,0,32,40l6.9,24c9.1,24,19.9,32,41.1,32h76c11,0,20-9,20-20s-9-20-20-20h-68l-16-88"/><path class="cls-1" d="M208.6,296c-12.6-5.3-26-8-40-8s-27.4,2.7-40,8"/><path class="cls-1" d="M296,372c0-76-57.3-116-128-116-15.3,0-30,2-43.6,5.7-7.2-17.4-24.3-29.7-44.4-29.7h-8v58.7c-13.7,13.3-23.7,30.5-28.5,51.3l-35.5-6,8,64h26.9c6.5,30.1,23.6,52.7,47.1,67.5l6.6,36.5h47.4l2.9-17.4c6.9.8,13.9,1.4,21.1,1.4s14.5-.5,21.5-1.4l3.1,17.4h47.4l6.1-36.6c30.3-19.1,49.9-51.1,49.9-95.4Z"/><path class="cls-1" d="M296,352l19.9-5c7.1-1.8,12.1-8.2,12.1-15.5v-3.5c0-8.8-7.2-16-16-16h0"/></g></g></svg>